<svg xmlns="http://www.w3.org/2000/svg" xmlns:xlink="http://www.w3.org/1999/xlink" viewBox="0 0 410.8 270.5"><defs><style>.cls-1{fill:none;}.cls-2{fill:#dfe0df;}.cls-3{clip-path:url(#clip-path);}.cls-4{fill:url(#Безымянный_градиент_2);}.cls-5{clip-path:url(#clip-path-2);}.cls-6{fill:url(#Безымянный_градиент_2-2);}.cls-7{clip-path:url(#clip-path-3);}.cls-8{fill:url(#Безымянный_градиент_4);}.cls-9{clip-path:url(#clip-path-4);}.cls-10{fill:url(#Безымянный_градиент_4-2);}.cls-11{clip-path:url(#clip-path-5);}.cls-12{fill:url(#Безымянный_градиент_6);}.cls-13{clip-path:url(#clip-path-6);}.cls-14{fill:url(#Безымянный_градиент_6-2);}</style><clipPath id="clip-path" transform="translate(38.61 14.97)"><path class="cls-1" d="M244.07,130.81c-4.89,9.64-11.45,25.9-15.1,33.92-4.56,10-1.08,16.55,9.46,21.59,9.84,4.71,41.95,18.26,52.27,23.38,11.17,5.55,18.91,3.11,23.24-6.29,3.68-8,10.35-21.8,15.66-34.31s.37-19-8.85-23.18S277.07,126,267.26,122a24.33,24.33,0,0,0-9.16-2.16c-5.83,0-10.2,3.45-14,11"/></clipPath><linearGradient id="Безымянный_градиент_2" x1="-861.2" y1="542.78" x2="-860.2" y2="542.78" gradientTransform="matrix(-69.64, 0, 0, 69.64, -59653.8, -37628.79)" gradientUnits="userSpaceOnUse"><stop offset="0" stop-color="#fccc39"/><stop offset="0.35" stop-color="#fabf33"/><stop offset="0.99" stop-color="#f39b24"/><stop offset="1" stop-color="#f39b24"/></linearGradient><clipPath id="clip-path-2" transform="translate(38.61 14.97)"><path class="cls-1" d="M325,189.5c-3.42,7.69,6.26,24.37,11.7,22.89,4.69-1.27,2.2-6.3,9.34-14.68,5.24-6.16,14.28-5.93,13.59-10.88-.51-3.72-6.58-5.53-13.53-5.53-8.66,0-18.71,2.81-21.1,8.2"/></clipPath><linearGradient id="Безымянный_градиент_2-2" x1="-861.2" y1="543.22" x2="-860.2" y2="543.22" gradientTransform="matrix(-69.63, 0, 0, 69.63, -59586.38, -37628.02)" xlink:href="#Безымянный_градиент_2"/><clipPath id="clip-path-3" transform="translate(38.61 14.97)"><path class="cls-1" d="M88.83,26.1c-1.21,16.4-4.45,51-5.13,60.17-1.44,19.52,7.8,26.49,26.05,28.14s77.64,6.91,95,8.32c20,1.62,28.41-7.3,29.92-22.76,1.25-12.81,4.32-40.76,5.86-58.71,1.53-17.78-3.35-31-24-32.59-17.46-1.33-80-7.3-96.76-8.52-1.33-.1-2.63-.15-3.88-.15-16.35,0-25.72,8.36-27,26.1"/></clipPath><linearGradient id="Безымянный_градиент_4" x1="-857.87" y1="540.06" x2="-856.87" y2="540.06" gradientTransform="matrix(-113.87, 0, 0, 113.87, -97469.76, -61437.56)" gradientUnits="userSpaceOnUse"><stop offset="0" stop-color="#bfd23e"/><stop offset="0.14" stop-color="#bad13e"/><stop offset="0.31" stop-color="#adcd40"/><stop offset="0.48" stop-color="#96c741"/><stop offset="0.66" stop-color="#76be44"/><stop offset="0.84" stop-color="#4eb347"/><stop offset="1" stop-color="#24a84b"/></linearGradient><clipPath id="clip-path-4" transform="translate(38.61 14.97)"><path class="cls-1" d="M285.05,40c-15,0-42.93,16.85-42.9,31.08,0,14.06,26.13,32.94,33.43,27,6.29-5.14-.93-11.11,4.26-28.77,3.82-13,17.77-18.76,13.34-25.85-1.49-2.39-4.4-3.43-8.13-3.43h0"/></clipPath><linearGradient id="Безымянный_градиент_4-2" x1="-857.87" y1="540.51" x2="-856.87" y2="540.51" gradientTransform="matrix(-113.88, 0, 0, 113.88, -97363.9, -61479.31)" xlink:href="#Безымянный_градиент_4"/><clipPath id="clip-path-5" transform="translate(38.61 14.97)"><path class="cls-1" d="M92.21,79.55c-14.68,4.45-60.35,18.21-75.13,23S-2.86,116.1,1.49,131.93c3.38,12.31,11.58,37.69,14.68,47.56,4.6,14.65,13.1,18,28.59,13.44,14-4.11,59.59-18.17,75.13-23s20.53-12.88,15.6-29.37c-1.88-6.28-9-29.3-13.91-45.39-3.65-12-8.66-17.61-18-17.61a40.07,40.07,0,0,0-11.38,2"/></clipPath><linearGradient id="Безымянный_градиент_6" x1="-855.21" y1="541.07" x2="-854.21" y2="541.07" gradientTransform="matrix(0, 94.12, 94.12, 0, -50858.66, 80584.49)" gradientUnits="userSpaceOnUse"><stop offset="0" stop-color="#e8463a"/><stop offset="0.28" stop-color="#e04039"/><stop offset="0.72" stop-color="#ca2f36"/><stop offset="1" stop-color="#b82133"/></linearGradient><clipPath id="clip-path-6" transform="translate(38.61 14.97)"><path class="cls-1" d="M131.74,115.39c4.7,11.45,32.28,18.14,36.25,10.84,3.41-6.28-4.47-8.74-6.12-24.87-1.21-11.84,8.23-21.22,2.26-25.53a5.79,5.79,0,0,0-3.47-1c-11.86,0-34.28,27.56-28.92,40.61"/></clipPath><linearGradient id="Безымянный_градиент_6-2" x1="-855.21" y1="541.45" x2="-854.21" y2="541.45" gradientTransform="matrix(0, 94.12, 94.12, 0, -50812.52, 80554.22)" xlink:href="#Безымянный_градиент_6"/></defs><g id="Слой_2" data-name="Слой 2"><g id="Слой_1-2" data-name="Слой 1"><path class="cls-2" d="M317.17,153.51c-9.22-4.19-42.5-19.59-52.31-23.67-10.81-4.49-17.58-2.23-23.19,8.84-4.88,9.65-11.44,25.91-15.1,33.93-4.56,10-1.08,16.55,9.47,21.59,9.84,4.71,40.76,18,51.07,23.09,11.18,5.55,18.91,3.11,23.24-6.29,3.68-8,10.35-21.81,15.67-34.31s.37-19-8.85-23.18" transform="translate(38.61 14.97)"/><path class="cls-2" d="M322,197.38c4.32-9.72,33.47-11,34.64-2.68.69,5-8.35,4.73-13.6,10.88-7.14,8.39-4.65,13.41-9.33,14.69-5.45,1.48-15.12-15.2-11.71-22.89" transform="translate(38.61 14.97)"/><path class="cls-2" d="M215.22,19.2c-17.46-1.33-79.09-7.3-95.82-8.53C100.65,9.3,89.9,17.53,88.48,36.62,87.26,53,84,87.65,83.35,96.8c-1.45,19.52,7.79,26.48,26,28.14s76.7,6.91,94.07,8.31c20,1.62,28.41-5.21,29.92-22.75,1.1-12.83,4.32-40.76,5.86-58.72,1.53-17.78-3.35-31-24-32.58" transform="translate(38.61 14.97)"/><path class="cls-2" d="M240.86,81.62c0-17.78,43.56-39.63,51-27.66,4.42,7.09-9.52,12.9-13.34,25.86-5.19,17.66,2,23.63-4.26,28.77-7.3,6-33.41-12.92-33.43-27" transform="translate(38.61 14.97)"/><path class="cls-2" d="M94.76,89.24c-14.67,4.45-59.68,17.54-74.46,22.35S.36,125.13,4.71,141c3.38,12.31,11.58,37.68,14.68,47.55C24,203.17,32.49,206.49,48,202c14-4.11,58.93-17.52,74.47-22.36s20.53-12.88,15.6-29.38c-1.88-6.28-9-29.29-13.91-45.39s-12.3-20.77-29.38-15.59" transform="translate(38.61 14.97)"/><path class="cls-2" d="M134.64,124.74C128.69,110.25,157,77.91,167,85.18c6,4.3-3.47,13.69-2.26,25.52,1.65,16.13,9.53,18.59,6.12,24.88-4,7.3-31.55.61-36.25-10.84" transform="translate(38.61 14.97)"/><g class="cls-3"><rect class="cls-4" x="213.92" y="97.85" width="131.49" height="139.33" transform="translate(53.46 372.63) rotate(-66.6)"/></g><g class="cls-5"><rect class="cls-6" x="318.3" y="173.34" width="45.28" height="48.49" transform="translate(62.82 446.99) rotate(-66.6)"/></g><g class="cls-7"><rect class="cls-8" x="92.74" y="-23.22" width="138.84" height="170.79" transform="translate(123.61 232.73) rotate(-84.6)"/></g><g class="cls-9"><rect class="cls-10" x="235.39" y="41.39" width="68.95" height="61.26" transform="translate(211.38 348.88) rotate(-84.6)"/></g><g class="cls-11"><rect class="cls-12" x="-18.07" y="58.07" width="173.7" height="158.85" transform="translate(-1.08 43.52) rotate(-18.3)"/></g><g class="cls-13"><rect class="cls-14" x="118.29" y="69.2" width="61.19" height="69.92" transform="translate(13.44 66.99) rotate(-18.3)"/></g></g></g></svg>