<svg
        xmlns="http://www.w3.org/2000/svg"
        xmlns:xlink="http://www.w3.org/1999/xlink"
        width="477px" height="274px">
    <text kerning="auto" font-family="Myriad Pro" fill="rgb(0, 0, 0)" transform="matrix( 0.5, 0, 0, 0.5,224.4005, 7)" font-size="20px"><tspan font-size="20px" font-family="TT Norms" fill="#7F7F7F">&#1069;&#1082;&#1088;&#1072;&#1085;</tspan></text>
    <path fill-rule="evenodd"  fill="rgb(224, 225, 221)"
          d="M82.499,26.999 L88.500,26.999 C89.604,26.999 90.500,27.895 90.500,28.999 L90.500,35.0 C90.500,36.104 89.604,37.0 88.500,37.0 L82.499,37.0 C81.395,37.0 80.499,36.104 80.499,35.0 L80.499,28.999 C80.499,27.895 81.395,26.999 82.499,26.999 Z"/>
    <path fill-rule="evenodd"  fill="rgb(224, 225, 221)"
          d="M99.999,26.999 L106.0,26.999 C107.104,26.999 108.0,27.895 108.0,28.999 L108.0,35.0 C108.0,36.104 107.104,37.0 106.0,37.0 L99.999,37.0 C98.895,37.0 97.999,36.104 97.999,35.0 L97.999,28.999 C97.999,27.895 98.895,26.999 99.999,26.999 Z"/>
    <path fill-rule="evenodd"  fill="rgb(224, 225, 221)"
          d="M117.499,26.999 L123.500,26.999 C124.604,26.999 125.500,27.895 125.500,28.999 L125.500,35.0 C125.500,36.104 124.604,37.0 123.500,37.0 L117.499,37.0 C116.395,37.0 115.499,36.104 115.499,35.0 L115.499,28.999 C115.499,27.895 116.395,26.999 117.499,26.999 Z"/>
    <path fill-rule="evenodd"  fill="rgb(224, 225, 221)"
          d="M134.999,26.999 L141.0,26.999 C142.104,26.999 143.0,27.895 143.0,28.999 L143.0,35.0 C143.0,36.104 142.104,37.0 141.0,37.0 L134.999,37.0 C133.895,37.0 132.999,36.104 132.999,35.0 L132.999,28.999 C132.999,27.895 133.895,26.999 134.999,26.999 Z"/>
    <path fill-rule="evenodd"  fill="rgb(224, 225, 221)"
          d="M152.499,26.999 L158.500,26.999 C159.604,26.999 160.500,27.895 160.500,28.999 L160.500,35.0 C160.500,36.104 159.604,37.0 158.500,37.0 L152.499,37.0 C151.395,37.0 150.499,36.104 150.499,35.0 L150.499,28.999 C150.499,27.895 151.395,26.999 152.499,26.999 Z"/>
    <path fill-rule="evenodd"  fill="rgb(224, 225, 221)"
          d="M169.999,26.999 L176.0,26.999 C177.104,26.999 178.0,27.895 178.0,28.999 L178.0,35.0 C178.0,36.104 177.104,37.0 176.0,37.0 L169.999,37.0 C168.895,37.0 167.999,36.104 167.999,35.0 L167.999,28.999 C167.999,27.895 168.895,26.999 169.999,26.999 Z"/>
    <path fill-rule="evenodd"  fill="rgb(224, 225, 221)"
          d="M187.499,26.999 L193.500,26.999 C194.604,26.999 195.500,27.895 195.500,28.999 L195.500,35.0 C195.500,36.104 194.604,37.0 193.500,37.0 L187.499,37.0 C186.395,37.0 185.499,36.104 185.499,35.0 L185.499,28.999 C185.499,27.895 186.395,26.999 187.499,26.999 Z"/>
    <path fill-rule="evenodd"  fill="rgb(224, 225, 221)"
          d="M204.999,26.999 L211.0,26.999 C212.104,26.999 213.0,27.895 213.0,28.999 L213.0,35.0 C213.0,36.104 212.104,37.0 211.0,37.0 L204.999,37.0 C203.895,37.0 202.999,36.104 202.999,35.0 L202.999,28.999 C202.999,27.895 203.895,26.999 204.999,26.999 Z"/>
    <path fill-rule="evenodd"  fill="rgb(224, 225, 221)"
          d="M222.499,26.999 L228.500,26.999 C229.604,26.999 230.500,27.895 230.500,28.999 L230.500,35.0 C230.500,36.104 229.604,37.0 228.500,37.0 L222.499,37.0 C221.395,37.0 220.499,36.104 220.499,35.0 L220.499,28.999 C220.499,27.895 221.395,26.999 222.499,26.999 Z"/>
    <path fill-rule="evenodd"  fill="rgb(224, 225, 221)"
          d="M239.999,26.999 L246.0,26.999 C247.104,26.999 248.0,27.895 248.0,28.999 L248.0,35.0 C248.0,36.104 247.104,37.0 246.0,37.0 L239.999,37.0 C238.895,37.0 237.999,36.104 237.999,35.0 L237.999,28.999 C237.999,27.895 238.895,26.999 239.999,26.999 Z"/>
    <path fill-rule="evenodd"  fill="rgb(224, 225, 221)"
          d="M257.499,26.999 L263.500,26.999 C264.604,26.999 265.500,27.895 265.500,28.999 L265.500,35.0 C265.500,36.104 264.604,37.0 263.500,37.0 L257.499,37.0 C256.395,37.0 255.499,36.104 255.499,35.0 L255.499,28.999 C255.499,27.895 256.395,26.999 257.499,26.999 Z"/>
    <path fill-rule="evenodd"  fill="rgb(224, 225, 221)"
          d="M274.999,26.999 L281.0,26.999 C282.104,26.999 283.0,27.895 283.0,28.999 L283.0,35.0 C283.0,36.104 282.104,37.0 281.0,37.0 L274.999,37.0 C273.895,37.0 272.999,36.104 272.999,35.0 L272.999,28.999 C272.999,27.895 273.895,26.999 274.999,26.999 Z"/>
    <path fill-rule="evenodd"  fill="rgb(224, 225, 221)"
          d="M292.499,26.999 L298.500,26.999 C299.604,26.999 300.500,27.895 300.500,28.999 L300.500,35.0 C300.500,36.104 299.604,37.0 298.500,37.0 L292.499,37.0 C291.395,37.0 290.499,36.104 290.499,35.0 L290.499,28.999 C290.499,27.895 291.395,26.999 292.499,26.999 Z"/>
    <path fill-rule="evenodd"  fill="rgb(224, 225, 221)"
          d="M309.999,26.999 L316.0,26.999 C317.104,26.999 318.0,27.895 318.0,28.999 L318.0,35.0 C318.0,36.104 317.104,37.0 316.0,37.0 L309.999,37.0 C308.895,37.0 307.999,36.104 307.999,35.0 L307.999,28.999 C307.999,27.895 308.895,26.999 309.999,26.999 Z"/>
    <path fill-rule="evenodd"  fill="rgb(224, 225, 221)"
          d="M327.499,26.999 L333.500,26.999 C334.604,26.999 335.500,27.895 335.500,28.999 L335.500,35.0 C335.500,36.104 334.604,37.0 333.500,37.0 L327.499,37.0 C326.395,37.0 325.499,36.104 325.499,35.0 L325.499,28.999 C325.499,27.895 326.395,26.999 327.499,26.999 Z"/>
    <path fill-rule="evenodd"  fill="rgb(224, 225, 221)"
          d="M344.999,26.999 L351.0,26.999 C352.104,26.999 353.0,27.895 353.0,28.999 L353.0,35.0 C353.0,36.104 352.104,37.0 351.0,37.0 L344.999,37.0 C343.895,37.0 342.999,36.104 342.999,35.0 L342.999,28.999 C342.999,27.895 343.895,26.999 344.999,26.999 Z"/>
    <path fill-rule="evenodd"  fill="rgb(224, 225, 221)"
          d="M100.499,44.999 L106.500,44.999 C107.604,44.999 108.500,45.895 108.500,46.999 L108.500,53.0 C108.500,54.104 107.604,55.0 106.500,55.0 L100.499,55.0 C99.395,55.0 98.499,54.104 98.499,53.0 L98.499,46.999 C98.499,45.895 99.395,44.999 100.499,44.999 Z"/>
    <path fill-rule="evenodd"  fill="rgb(224, 225, 221)"
          d="M82.999,44.999 L89.0,44.999 C90.104,44.999 91.0,45.895 91.0,46.999 L91.0,53.0 C91.0,54.104 90.104,55.0 89.0,55.0 L82.999,55.0 C81.895,55.0 80.999,54.104 80.999,53.0 L80.999,46.999 C80.999,45.895 81.895,44.999 82.999,44.999 Z"/>
    <path fill-rule="evenodd"  fill="rgb(224, 225, 221)"
          d="M65.499,44.999 L71.500,44.999 C72.604,44.999 73.500,45.895 73.500,46.999 L73.500,53.0 C73.500,54.104 72.604,55.0 71.500,55.0 L65.499,55.0 C64.395,55.0 63.499,54.104 63.499,53.0 L63.499,46.999 C63.499,45.895 64.395,44.999 65.499,44.999 Z"/>
    <path fill-rule="evenodd"  fill="rgb(224, 225, 221)"
          d="M117.999,44.999 L124.0,44.999 C125.104,44.999 126.0,45.895 126.0,46.999 L126.0,53.0 C126.0,54.104 125.104,55.0 124.0,55.0 L117.999,55.0 C116.895,55.0 115.999,54.104 115.999,53.0 L115.999,46.999 C115.999,45.895 116.895,44.999 117.999,44.999 Z"/>
    <path fill-rule="evenodd"  fill="rgb(224, 225, 221)"
          d="M135.499,44.999 L141.500,44.999 C142.604,44.999 143.500,45.895 143.500,46.999 L143.500,53.0 C143.500,54.104 142.604,55.0 141.500,55.0 L135.499,55.0 C134.395,55.0 133.499,54.104 133.499,53.0 L133.499,46.999 C133.499,45.895 134.395,44.999 135.499,44.999 Z"/>
    <path fill-rule="evenodd"  fill="rgb(224, 225, 221)"
          d="M152.999,44.999 L159.0,44.999 C160.104,44.999 161.0,45.895 161.0,46.999 L161.0,53.0 C161.0,54.104 160.104,55.0 159.0,55.0 L152.999,55.0 C151.895,55.0 150.999,54.104 150.999,53.0 L150.999,46.999 C150.999,45.895 151.895,44.999 152.999,44.999 Z"/>
    <path fill-rule="evenodd"  fill="rgb(224, 225, 221)"
          d="M170.499,44.999 L176.500,44.999 C177.604,44.999 178.500,45.895 178.500,46.999 L178.500,53.0 C178.500,54.104 177.604,55.0 176.500,55.0 L170.499,55.0 C169.395,55.0 168.499,54.104 168.499,53.0 L168.499,46.999 C168.499,45.895 169.395,44.999 170.499,44.999 Z"/>
    <path fill-rule="evenodd"  fill="rgb(224, 225, 221)"
          d="M187.999,44.999 L194.0,44.999 C195.104,44.999 196.0,45.895 196.0,46.999 L196.0,53.0 C196.0,54.104 195.104,55.0 194.0,55.0 L187.999,55.0 C186.895,55.0 185.999,54.104 185.999,53.0 L185.999,46.999 C185.999,45.895 186.895,44.999 187.999,44.999 Z"/>
    <path fill-rule="evenodd"  fill="rgb(224, 225, 221)"
          d="M205.499,44.999 L211.500,44.999 C212.604,44.999 213.500,45.895 213.500,46.999 L213.500,53.0 C213.500,54.104 212.604,55.0 211.500,55.0 L205.499,55.0 C204.395,55.0 203.499,54.104 203.499,53.0 L203.499,46.999 C203.499,45.895 204.395,44.999 205.499,44.999 Z"/>
    <path fill-rule="evenodd"  fill="rgb(224, 225, 221)"
          d="M222.999,44.999 L229.0,44.999 C230.104,44.999 231.0,45.895 231.0,46.999 L231.0,53.0 C231.0,54.104 230.104,55.0 229.0,55.0 L222.999,55.0 C221.895,55.0 220.999,54.104 220.999,53.0 L220.999,46.999 C220.999,45.895 221.895,44.999 222.999,44.999 Z"/>
    <path fill-rule="evenodd"  fill="rgb(224, 225, 221)"
          d="M240.499,44.999 L246.500,44.999 C247.604,44.999 248.500,45.895 248.500,46.999 L248.500,53.0 C248.500,54.104 247.604,55.0 246.500,55.0 L240.499,55.0 C239.395,55.0 238.499,54.104 238.499,53.0 L238.499,46.999 C238.499,45.895 239.395,44.999 240.499,44.999 Z"/>
    <path fill-rule="evenodd"  fill="rgb(224, 225, 221)"
          d="M257.999,44.999 L264.0,44.999 C265.104,44.999 266.0,45.895 266.0,46.999 L266.0,53.0 C266.0,54.104 265.104,55.0 264.0,55.0 L257.999,55.0 C256.895,55.0 255.999,54.104 255.999,53.0 L255.999,46.999 C255.999,45.895 256.895,44.999 257.999,44.999 Z"/>
    <path fill-rule="evenodd"  fill="rgb(224, 225, 221)"
          d="M275.499,44.999 L281.500,44.999 C282.604,44.999 283.500,45.895 283.500,46.999 L283.500,53.0 C283.500,54.104 282.604,55.0 281.500,55.0 L275.499,55.0 C274.395,55.0 273.499,54.104 273.499,53.0 L273.499,46.999 C273.499,45.895 274.395,44.999 275.499,44.999 Z"/>
    <path fill-rule="evenodd"  fill="rgb(224, 225, 221)"
          d="M292.999,44.999 L299.0,44.999 C300.104,44.999 301.0,45.895 301.0,46.999 L301.0,53.0 C301.0,54.104 300.104,55.0 299.0,55.0 L292.999,55.0 C291.895,55.0 290.999,54.104 290.999,53.0 L290.999,46.999 C290.999,45.895 291.895,44.999 292.999,44.999 Z"/>
    <path fill-rule="evenodd"  fill="rgb(224, 225, 221)"
          d="M310.499,44.999 L316.500,44.999 C317.604,44.999 318.500,45.895 318.500,46.999 L318.500,53.0 C318.500,54.104 317.604,55.0 316.500,55.0 L310.499,55.0 C309.395,55.0 308.499,54.104 308.499,53.0 L308.499,46.999 C308.499,45.895 309.395,44.999 310.499,44.999 Z"/>
    <path fill-rule="evenodd"  fill="rgb(224, 225, 221)"
          d="M327.999,44.999 L334.0,44.999 C335.104,44.999 336.0,45.895 336.0,46.999 L336.0,53.0 C336.0,54.104 335.104,55.0 334.0,55.0 L327.999,55.0 C326.895,55.0 325.999,54.104 325.999,53.0 L325.999,46.999 C325.999,45.895 326.895,44.999 327.999,44.999 Z"/>
    <path fill-rule="evenodd"  fill="rgb(224, 225, 221)"
          d="M345.499,44.999 L351.500,44.999 C352.604,44.999 353.500,45.895 353.500,46.999 L353.500,53.0 C353.500,54.104 352.604,55.0 351.500,55.0 L345.499,55.0 C344.395,55.0 343.499,54.104 343.499,53.0 L343.499,46.999 C343.499,45.895 344.395,44.999 345.499,44.999 Z"/>
    <path fill-rule="evenodd"  fill="rgb(224, 225, 221)"
          d="M362.999,44.999 L369.0,44.999 C370.104,44.999 371.0,45.895 371.0,46.999 L371.0,53.0 C371.0,54.104 370.104,55.0 369.0,55.0 L362.999,55.0 C361.895,55.0 360.999,54.104 360.999,53.0 L360.999,46.999 C360.999,45.895 361.895,44.999 362.999,44.999 Z"/>
    <path fill-rule="evenodd"  fill="rgb(224, 225, 221)"
          d="M380.499,44.999 L386.500,44.999 C387.604,44.999 388.500,45.895 388.500,46.999 L388.500,53.0 C388.500,54.104 387.604,55.0 386.500,55.0 L380.499,55.0 C379.395,55.0 378.499,54.104 378.499,53.0 L378.499,46.999 C378.499,45.895 379.395,44.999 380.499,44.999 Z"/>
    <path fill-rule="evenodd"  fill="rgb(224, 225, 221)"
          d="M108.999,62.999 L115.0,62.999 C116.104,62.999 117.0,63.895 117.0,64.999 L117.0,71.0 C117.0,72.104 116.104,73.0 115.0,73.0 L108.999,73.0 C107.895,73.0 106.999,72.104 106.999,71.0 L106.999,64.999 C106.999,63.895 107.895,62.999 108.999,62.999 Z"/>
    <path fill-rule="evenodd"  fill="rgb(224, 225, 221)"
          d="M91.499,62.999 L97.500,62.999 C98.604,62.999 99.500,63.895 99.500,64.999 L99.500,71.0 C99.500,72.104 98.604,73.0 97.500,73.0 L91.499,73.0 C90.395,73.0 89.499,72.104 89.499,71.0 L89.499,64.999 C89.499,63.895 90.395,62.999 91.499,62.999 Z"/>
    <path fill-rule="evenodd"  fill="rgb(224, 225, 221)"
          d="M73.999,62.999 L80.0,62.999 C81.104,62.999 82.0,63.895 82.0,64.999 L82.0,71.0 C82.0,72.104 81.104,73.0 80.0,73.0 L73.999,73.0 C72.895,73.0 71.999,72.104 71.999,71.0 L71.999,64.999 C71.999,63.895 72.895,62.999 73.999,62.999 Z"/>
    <path fill-rule="evenodd"  fill="rgb(224, 225, 221)"
          d="M56.499,62.999 L62.500,62.999 C63.604,62.999 64.500,63.895 64.500,64.999 L64.500,71.0 C64.500,72.104 63.604,73.0 62.500,73.0 L56.499,73.0 C55.395,73.0 54.499,72.104 54.499,71.0 L54.499,64.999 C54.499,63.895 55.395,62.999 56.499,62.999 Z"/>
    <path fill-rule="evenodd"  fill="rgb(224, 225, 221)"
          d="M126.499,62.999 L132.500,62.999 C133.604,62.999 134.500,63.895 134.500,64.999 L134.500,71.0 C134.500,72.104 133.604,73.0 132.500,73.0 L126.499,73.0 C125.395,73.0 124.499,72.104 124.499,71.0 L124.499,64.999 C124.499,63.895 125.395,62.999 126.499,62.999 Z"/>
    <path fill-rule="evenodd"  fill="rgb(224, 225, 221)"
          d="M143.999,62.999 L150.0,62.999 C151.104,62.999 152.0,63.895 152.0,64.999 L152.0,71.0 C152.0,72.104 151.104,73.0 150.0,73.0 L143.999,73.0 C142.895,73.0 141.999,72.104 141.999,71.0 L141.999,64.999 C141.999,63.895 142.895,62.999 143.999,62.999 Z"/>
    <path fill-rule="evenodd"  fill="rgb(224, 225, 221)"
          d="M161.499,62.999 L167.500,62.999 C168.604,62.999 169.500,63.895 169.500,64.999 L169.500,71.0 C169.500,72.104 168.604,73.0 167.500,73.0 L161.499,73.0 C160.395,73.0 159.499,72.104 159.499,71.0 L159.499,64.999 C159.499,63.895 160.395,62.999 161.499,62.999 Z"/>
    <path fill-rule="evenodd"  fill="rgb(224, 225, 221)"
          d="M178.999,62.999 L185.0,62.999 C186.104,62.999 187.0,63.895 187.0,64.999 L187.0,71.0 C187.0,72.104 186.104,73.0 185.0,73.0 L178.999,73.0 C177.895,73.0 176.999,72.104 176.999,71.0 L176.999,64.999 C176.999,63.895 177.895,62.999 178.999,62.999 Z"/>
    <path fill-rule="evenodd"  fill="rgb(224, 225, 221)"
          d="M196.499,62.999 L202.500,62.999 C203.604,62.999 204.500,63.895 204.500,64.999 L204.500,71.0 C204.500,72.104 203.604,73.0 202.500,73.0 L196.499,73.0 C195.395,73.0 194.499,72.104 194.499,71.0 L194.499,64.999 C194.499,63.895 195.395,62.999 196.499,62.999 Z"/>
    <path fill-rule="evenodd"  fill="rgb(224, 225, 221)"
          d="M213.999,62.999 L220.0,62.999 C221.104,62.999 222.0,63.895 222.0,64.999 L222.0,71.0 C222.0,72.104 221.104,73.0 220.0,73.0 L213.999,73.0 C212.895,73.0 211.999,72.104 211.999,71.0 L211.999,64.999 C211.999,63.895 212.895,62.999 213.999,62.999 Z"/>
    <path fill-rule="evenodd"  fill="rgb(224, 225, 221)"
          d="M231.499,62.999 L237.500,62.999 C238.604,62.999 239.500,63.895 239.500,64.999 L239.500,71.0 C239.500,72.104 238.604,73.0 237.500,73.0 L231.499,73.0 C230.395,73.0 229.499,72.104 229.499,71.0 L229.499,64.999 C229.499,63.895 230.395,62.999 231.499,62.999 Z"/>
    <path fill-rule="evenodd"  fill="rgb(224, 225, 221)"
          d="M248.999,62.999 L255.0,62.999 C256.104,62.999 257.0,63.895 257.0,64.999 L257.0,71.0 C257.0,72.104 256.104,73.0 255.0,73.0 L248.999,73.0 C247.895,73.0 246.999,72.104 246.999,71.0 L246.999,64.999 C246.999,63.895 247.895,62.999 248.999,62.999 Z"/>
    <path fill-rule="evenodd"  fill="rgb(224, 225, 221)"
          d="M266.499,62.999 L272.500,62.999 C273.604,62.999 274.500,63.895 274.500,64.999 L274.500,71.0 C274.500,72.104 273.604,73.0 272.500,73.0 L266.499,73.0 C265.395,73.0 264.499,72.104 264.499,71.0 L264.499,64.999 C264.499,63.895 265.395,62.999 266.499,62.999 Z"/>
    <path fill-rule="evenodd"  fill="rgb(224, 225, 221)"
          d="M283.999,62.999 L290.0,62.999 C291.104,62.999 292.0,63.895 292.0,64.999 L292.0,71.0 C292.0,72.104 291.104,73.0 290.0,73.0 L283.999,73.0 C282.895,73.0 281.999,72.104 281.999,71.0 L281.999,64.999 C281.999,63.895 282.895,62.999 283.999,62.999 Z"/>
    <path fill-rule="evenodd"  fill="rgb(224, 225, 221)"
          d="M301.499,62.999 L307.500,62.999 C308.604,62.999 309.500,63.895 309.500,64.999 L309.500,71.0 C309.500,72.104 308.604,73.0 307.500,73.0 L301.499,73.0 C300.395,73.0 299.499,72.104 299.499,71.0 L299.499,64.999 C299.499,63.895 300.395,62.999 301.499,62.999 Z"/>
    <path fill-rule="evenodd"  fill="rgb(224, 225, 221)"
          d="M318.999,62.999 L325.0,62.999 C326.104,62.999 327.0,63.895 327.0,64.999 L327.0,71.0 C327.0,72.104 326.104,73.0 325.0,73.0 L318.999,73.0 C317.895,73.0 316.999,72.104 316.999,71.0 L316.999,64.999 C316.999,63.895 317.895,62.999 318.999,62.999 Z"/>
    <path fill-rule="evenodd"  fill="rgb(224, 225, 221)"
          d="M336.499,62.999 L342.500,62.999 C343.604,62.999 344.500,63.895 344.500,64.999 L344.500,71.0 C344.500,72.104 343.604,73.0 342.500,73.0 L336.499,73.0 C335.395,73.0 334.499,72.104 334.499,71.0 L334.499,64.999 C334.499,63.895 335.395,62.999 336.499,62.999 Z"/>
    <path fill-rule="evenodd"  fill="rgb(224, 225, 221)"
          d="M353.999,62.999 L360.0,62.999 C361.104,62.999 362.0,63.895 362.0,64.999 L362.0,71.0 C362.0,72.104 361.104,73.0 360.0,73.0 L353.999,73.0 C352.895,73.0 351.999,72.104 351.999,71.0 L351.999,64.999 C351.999,63.895 352.895,62.999 353.999,62.999 Z"/>
    <path fill-rule="evenodd"  fill="rgb(224, 225, 221)"
          d="M371.499,62.999 L377.500,62.999 C378.604,62.999 379.500,63.895 379.500,64.999 L379.500,71.0 C379.500,72.104 378.604,73.0 377.500,73.0 L371.499,73.0 C370.395,73.0 369.499,72.104 369.499,71.0 L369.499,64.999 C369.499,63.895 370.395,62.999 371.499,62.999 Z"/>
    <path fill-rule="evenodd"  fill="rgb(224, 225, 221)"
          d="M388.999,62.999 L395.0,62.999 C396.104,62.999 397.0,63.895 397.0,64.999 L397.0,71.0 C397.0,72.104 396.104,73.0 395.0,73.0 L388.999,73.0 C387.895,73.0 386.999,72.104 386.999,71.0 L386.999,64.999 C386.999,63.895 387.895,62.999 388.999,62.999 Z"/>
    <path fill-rule="evenodd"  fill="rgb(224, 225, 221)"
          d="M103.499,82.499 L109.500,82.499 C110.604,82.499 111.500,83.395 111.500,84.499 L111.500,90.500 C111.500,91.604 110.604,92.500 109.500,92.500 L103.499,92.500 C102.395,92.500 101.499,91.604 101.499,90.500 L101.499,84.499 C101.499,83.395 102.395,82.499 103.499,82.499 Z"/>
    <path fill-rule="evenodd"  fill="rgb(224, 225, 221)"
          d="M120.999,82.499 L127.0,82.499 C128.104,82.499 129.0,83.395 129.0,84.499 L129.0,90.500 C129.0,91.604 128.104,92.500 127.0,92.500 L120.999,92.500 C119.895,92.500 118.999,91.604 118.999,90.500 L118.999,84.499 C118.999,83.395 119.895,82.499 120.999,82.499 Z"/>
    <path fill-rule="evenodd"  fill="rgb(224, 225, 221)"
          d="M138.499,82.499 L144.500,82.499 C145.604,82.499 146.500,83.395 146.500,84.499 L146.500,90.500 C146.500,91.604 145.604,92.500 144.500,92.500 L138.499,92.500 C137.395,92.500 136.499,91.604 136.499,90.500 L136.499,84.499 C136.499,83.395 137.395,82.499 138.499,82.499 Z"/>
    <path fill-rule="evenodd"  fill="rgb(224, 225, 221)"
          d="M155.999,82.499 L162.0,82.499 C163.104,82.499 164.0,83.395 164.0,84.499 L164.0,90.500 C164.0,91.604 163.104,92.500 162.0,92.500 L155.999,92.500 C154.895,92.500 153.999,91.604 153.999,90.500 L153.999,84.499 C153.999,83.395 154.895,82.499 155.999,82.499 Z"/>
    <path fill-rule="evenodd"  fill="rgb(224, 225, 221)"
          d="M173.499,82.499 L179.500,82.499 C180.604,82.499 181.500,83.395 181.500,84.499 L181.500,90.500 C181.500,91.604 180.604,92.500 179.500,92.500 L173.499,92.500 C172.395,92.500 171.499,91.604 171.499,90.500 L171.499,84.499 C171.499,83.395 172.395,82.499 173.499,82.499 Z"/>
    <path fill-rule="evenodd"  fill="rgb(224, 225, 221)"
          d="M190.999,82.499 L197.0,82.499 C198.104,82.499 199.0,83.395 199.0,84.499 L199.0,90.500 C199.0,91.604 198.104,92.500 197.0,92.500 L190.999,92.500 C189.895,92.500 188.999,91.604 188.999,90.500 L188.999,84.499 C188.999,83.395 189.895,82.499 190.999,82.499 Z"/>
    <path fill-rule="evenodd"  fill="rgb(224, 225, 221)"
          d="M208.499,82.499 L214.500,82.499 C215.604,82.499 216.500,83.395 216.500,84.499 L216.500,90.500 C216.500,91.604 215.604,92.500 214.500,92.500 L208.499,92.500 C207.395,92.500 206.499,91.604 206.499,90.500 L206.499,84.499 C206.499,83.395 207.395,82.499 208.499,82.499 Z"/>
    <path fill-rule="evenodd"  fill="rgb(224, 225, 221)"
          d="M225.999,82.499 L232.0,82.499 C233.104,82.499 234.0,83.395 234.0,84.499 L234.0,90.500 C234.0,91.604 233.104,92.500 232.0,92.500 L225.999,92.500 C224.895,92.500 223.999,91.604 223.999,90.500 L223.999,84.499 C223.999,83.395 224.895,82.499 225.999,82.499 Z"/>
    <path fill-rule="evenodd"  fill="rgb(224, 225, 221)"
          d="M243.499,82.499 L249.500,82.499 C250.604,82.499 251.500,83.395 251.500,84.499 L251.500,90.500 C251.500,91.604 250.604,92.500 249.500,92.500 L243.499,92.500 C242.395,92.500 241.499,91.604 241.499,90.500 L241.499,84.499 C241.499,83.395 242.395,82.499 243.499,82.499 Z"/>
    <path fill-rule="evenodd"  fill="rgb(224, 225, 221)"
          d="M260.999,82.499 L267.0,82.499 C268.104,82.499 269.0,83.395 269.0,84.499 L269.0,90.500 C269.0,91.604 268.104,92.500 267.0,92.500 L260.999,92.500 C259.895,92.500 258.999,91.604 258.999,90.500 L258.999,84.499 C258.999,83.395 259.895,82.499 260.999,82.499 Z"/>
    <path fill-rule="evenodd"  fill="rgb(224, 225, 221)"
          d="M278.499,82.499 L284.500,82.499 C285.604,82.499 286.500,83.395 286.500,84.499 L286.500,90.500 C286.500,91.604 285.604,92.500 284.500,92.500 L278.499,92.500 C277.395,92.500 276.499,91.604 276.499,90.500 L276.499,84.499 C276.499,83.395 277.395,82.499 278.499,82.499 Z"/>
    <path fill-rule="evenodd"  fill="rgb(224, 225, 221)"
          d="M295.999,82.499 L302.0,82.499 C303.104,82.499 304.0,83.395 304.0,84.499 L304.0,90.500 C304.0,91.604 303.104,92.500 302.0,92.500 L295.999,92.500 C294.895,92.500 293.999,91.604 293.999,90.500 L293.999,84.499 C293.999,83.395 294.895,82.499 295.999,82.499 Z"/>
    <path fill-rule="evenodd"  fill="rgb(224, 225, 221)"
          d="M313.499,82.499 L319.500,82.499 C320.604,82.499 321.500,83.395 321.500,84.499 L321.500,90.500 C321.500,91.604 320.604,92.500 319.500,92.500 L313.499,92.500 C312.395,92.500 311.499,91.604 311.499,90.500 L311.499,84.499 C311.499,83.395 312.395,82.499 313.499,82.499 Z"/>
    <path fill-rule="evenodd"  fill="rgb(224, 225, 221)"
          d="M330.999,82.499 L337.0,82.499 C338.104,82.499 339.0,83.395 339.0,84.499 L339.0,90.500 C339.0,91.604 338.104,92.500 337.0,92.500 L330.999,92.500 C329.895,92.500 328.999,91.604 328.999,90.500 L328.999,84.499 C328.999,83.395 329.895,82.499 330.999,82.499 Z"/>
    <path fill-rule="evenodd"  fill="rgb(224, 225, 221)"
          d="M348.499,82.499 L354.500,82.499 C355.604,82.499 356.500,83.395 356.500,84.499 L356.500,90.500 C356.500,91.604 355.604,92.500 354.500,92.500 L348.499,92.500 C347.395,92.500 346.499,91.604 346.499,90.500 L346.499,84.499 C346.499,83.395 347.395,82.499 348.499,82.499 Z"/>
    <path fill-rule="evenodd"  fill="rgb(224, 225, 221)"
          d="M365.999,82.499 L372.0,82.499 C373.104,82.499 374.0,83.395 374.0,84.499 L374.0,90.500 C374.0,91.604 373.104,92.500 372.0,92.500 L365.999,92.500 C364.895,92.500 363.999,91.604 363.999,90.500 L363.999,84.499 C363.999,83.395 364.895,82.499 365.999,82.499 Z"/>
    <path fill-rule="evenodd"  fill="rgb(224, 225, 221)"
          d="M383.499,82.499 L389.500,82.499 C390.604,82.499 391.500,83.395 391.500,84.499 L391.500,90.500 C391.500,91.604 390.604,92.500 389.500,92.500 L383.499,92.500 C382.395,92.500 381.499,91.604 381.499,90.500 L381.499,84.499 C381.499,83.395 382.395,82.499 383.499,82.499 Z"/>
    <text kerning="auto" font-family="Myriad Pro" fill="rgb(0, 0, 0)" transform="matrix( 0.5, 0, 0, 0.5,0.37900000000002, 91.703)" font-size="24px"><tspan font-size="24px" font-family="TT Norms" fill="#000000">&#52;</tspan></text>
    <text kerning="auto" font-family="Myriad Pro" fill="rgb(0, 0, 0)" transform="matrix( 0.5, 0, 0, 0.5,470.379, 91.703)" font-size="24px"><tspan font-size="24px" font-family="TT Norms" fill="#000000">&#52;</tspan></text>
    <path fill-rule="evenodd"  fill="rgb(0, 155, 189)"
          d="M103.499,100.499 L109.500,100.499 C110.604,100.499 111.500,101.395 111.500,102.499 L111.500,108.500 C111.500,109.604 110.604,110.500 109.500,110.500 L103.499,110.500 C102.395,110.500 101.499,109.604 101.499,108.500 L101.499,102.499 C101.499,101.395 102.395,100.499 103.499,100.499 Z"/>
    <path fill-rule="evenodd"  fill="rgb(0, 155, 189)"
          d="M120.999,100.499 L127.0,100.499 C128.104,100.499 129.0,101.395 129.0,102.499 L129.0,108.500 C129.0,109.604 128.104,110.500 127.0,110.500 L120.999,110.500 C119.895,110.500 118.999,109.604 118.999,108.500 L118.999,102.499 C118.999,101.395 119.895,100.499 120.999,100.499 Z"/>
    <path fill-rule="evenodd"  fill="rgb(0, 155, 189)"
          d="M138.499,100.499 L144.500,100.499 C145.604,100.499 146.500,101.395 146.500,102.499 L146.500,108.500 C146.500,109.604 145.604,110.500 144.500,110.500 L138.499,110.500 C137.395,110.500 136.499,109.604 136.499,108.500 L136.499,102.499 C136.499,101.395 137.395,100.499 138.499,100.499 Z"/>
    <path fill-rule="evenodd"  fill="rgb(0, 155, 189)"
          d="M155.999,100.499 L162.0,100.499 C163.104,100.499 164.0,101.395 164.0,102.499 L164.0,108.500 C164.0,109.604 163.104,110.500 162.0,110.500 L155.999,110.500 C154.895,110.500 153.999,109.604 153.999,108.500 L153.999,102.499 C153.999,101.395 154.895,100.499 155.999,100.499 Z"/>
    <path fill-rule="evenodd"  fill="rgb(0, 155, 189)"
          d="M173.499,100.499 L179.500,100.499 C180.604,100.499 181.500,101.395 181.500,102.499 L181.500,108.500 C181.500,109.604 180.604,110.500 179.500,110.500 L173.499,110.500 C172.395,110.500 171.499,109.604 171.499,108.500 L171.499,102.499 C171.499,101.395 172.395,100.499 173.499,100.499 Z"/>
    <path fill-rule="evenodd"  fill="rgb(0, 155, 189)"
          d="M190.999,100.499 L197.0,100.499 C198.104,100.499 199.0,101.395 199.0,102.499 L199.0,108.500 C199.0,109.604 198.104,110.500 197.0,110.500 L190.999,110.500 C189.895,110.500 188.999,109.604 188.999,108.500 L188.999,102.499 C188.999,101.395 189.895,100.499 190.999,100.499 Z"/>
    <path fill-rule="evenodd"  fill="rgb(0, 155, 189)"
          d="M208.499,100.499 L214.500,100.499 C215.604,100.499 216.500,101.395 216.500,102.499 L216.500,108.500 C216.500,109.604 215.604,110.500 214.500,110.500 L208.499,110.500 C207.395,110.500 206.499,109.604 206.499,108.500 L206.499,102.499 C206.499,101.395 207.395,100.499 208.499,100.499 Z"/>
    <path fill-rule="evenodd"  fill="rgb(0, 155, 189)"
          d="M225.999,100.499 L232.0,100.499 C233.104,100.499 234.0,101.395 234.0,102.499 L234.0,108.500 C234.0,109.604 233.104,110.500 232.0,110.500 L225.999,110.500 C224.895,110.500 223.999,109.604 223.999,108.500 L223.999,102.499 C223.999,101.395 224.895,100.499 225.999,100.499 Z"/>
    <path fill-rule="evenodd"  fill="rgb(0, 155, 189)"
          d="M243.499,100.499 L249.500,100.499 C250.604,100.499 251.500,101.395 251.500,102.499 L251.500,108.500 C251.500,109.604 250.604,110.500 249.500,110.500 L243.499,110.500 C242.395,110.500 241.499,109.604 241.499,108.500 L241.499,102.499 C241.499,101.395 242.395,100.499 243.499,100.499 Z"/>
    <path fill-rule="evenodd"  fill="rgb(0, 155, 189)"
          d="M260.999,100.499 L267.0,100.499 C268.104,100.499 269.0,101.395 269.0,102.499 L269.0,108.500 C269.0,109.604 268.104,110.500 267.0,110.500 L260.999,110.500 C259.895,110.500 258.999,109.604 258.999,108.500 L258.999,102.499 C258.999,101.395 259.895,100.499 260.999,100.499 Z"/>
    <path fill-rule="evenodd"  fill="rgb(0, 155, 189)"
          d="M278.499,100.499 L284.500,100.499 C285.604,100.499 286.500,101.395 286.500,102.499 L286.500,108.500 C286.500,109.604 285.604,110.500 284.500,110.500 L278.499,110.500 C277.395,110.500 276.499,109.604 276.499,108.500 L276.499,102.499 C276.499,101.395 277.395,100.499 278.499,100.499 Z"/>
    <path fill-rule="evenodd"  fill="rgb(0, 155, 189)"
          d="M295.999,100.499 L302.0,100.499 C303.104,100.499 304.0,101.395 304.0,102.499 L304.0,108.500 C304.0,109.604 303.104,110.500 302.0,110.500 L295.999,110.500 C294.895,110.500 293.999,109.604 293.999,108.500 L293.999,102.499 C293.999,101.395 294.895,100.499 295.999,100.499 Z"/>
    <path fill-rule="evenodd"  fill="rgb(0, 155, 189)"
          d="M313.499,100.499 L319.500,100.499 C320.604,100.499 321.500,101.395 321.500,102.499 L321.500,108.500 C321.500,109.604 320.604,110.500 319.500,110.500 L313.499,110.500 C312.395,110.500 311.499,109.604 311.499,108.500 L311.499,102.499 C311.499,101.395 312.395,100.499 313.499,100.499 Z"/>
    <path fill-rule="evenodd"  fill="rgb(0, 155, 189)"
          d="M330.999,100.499 L337.0,100.499 C338.104,100.499 339.0,101.395 339.0,102.499 L339.0,108.500 C339.0,109.604 338.104,110.500 337.0,110.500 L330.999,110.500 C329.895,110.500 328.999,109.604 328.999,108.500 L328.999,102.499 C328.999,101.395 329.895,100.499 330.999,100.499 Z"/>
    <path fill-rule="evenodd"  fill="rgb(0, 155, 189)"
          d="M348.499,100.499 L354.500,100.499 C355.604,100.499 356.500,101.395 356.500,102.499 L356.500,108.500 C356.500,109.604 355.604,110.500 354.500,110.500 L348.499,110.500 C347.395,110.500 346.499,109.604 346.499,108.500 L346.499,102.499 C346.499,101.395 347.395,100.499 348.499,100.499 Z"/>
    <path fill-rule="evenodd"  fill="rgb(0, 155, 189)"
          d="M365.999,100.499 L372.0,100.499 C373.104,100.499 374.0,101.395 374.0,102.499 L374.0,108.500 C374.0,109.604 373.104,110.500 372.0,110.500 L365.999,110.500 C364.895,110.500 363.999,109.604 363.999,108.500 L363.999,102.499 C363.999,101.395 364.895,100.499 365.999,100.499 Z"/>
    <path fill-rule="evenodd"  fill="rgb(0, 155, 189)"
          d="M383.499,100.499 L389.500,100.499 C390.604,100.499 391.500,101.395 391.500,102.499 L391.500,108.500 C391.500,109.604 390.604,110.500 389.500,110.500 L383.499,110.500 C382.395,110.500 381.499,109.604 381.499,108.500 L381.499,102.499 C381.499,101.395 382.395,100.499 383.499,100.499 Z"/>
    <text kerning="auto" font-family="Myriad Pro" fill="rgb(0, 0, 0)" transform="matrix( 0.5, 0, 0, 0.5,1.18374999999997, 109.6445)" font-size="24px"><tspan font-size="24px" font-family="TT Norms" fill="#000000">&#53;</tspan></text>
    <text kerning="auto" font-family="Myriad Pro" fill="rgb(0, 0, 0)" transform="matrix( 0.5, 0, 0, 0.5,471.18375, 109.6445)" font-size="24px"><tspan font-size="24px" font-family="TT Norms" fill="#000000">&#53;</tspan></text>
    <path fill-rule="evenodd"  fill="rgb(0, 155, 189)"
          d="M103.499,118.499 L109.500,118.499 C110.604,118.499 111.500,119.395 111.500,120.499 L111.500,126.500 C111.500,127.604 110.604,128.500 109.500,128.500 L103.499,128.500 C102.395,128.500 101.499,127.604 101.499,126.500 L101.499,120.499 C101.499,119.395 102.395,118.499 103.499,118.499 Z"/>
    <path fill-rule="evenodd"  fill="rgb(0, 155, 189)"
          d="M120.999,118.499 L127.0,118.499 C128.104,118.499 129.0,119.395 129.0,120.499 L129.0,126.500 C129.0,127.604 128.104,128.500 127.0,128.500 L120.999,128.500 C119.895,128.500 118.999,127.604 118.999,126.500 L118.999,120.499 C118.999,119.395 119.895,118.499 120.999,118.499 Z"/>
    <path fill-rule="evenodd"  fill="rgb(0, 155, 189)"
          d="M138.499,118.499 L144.500,118.499 C145.604,118.499 146.500,119.395 146.500,120.499 L146.500,126.500 C146.500,127.604 145.604,128.500 144.500,128.500 L138.499,128.500 C137.395,128.500 136.499,127.604 136.499,126.500 L136.499,120.499 C136.499,119.395 137.395,118.499 138.499,118.499 Z"/>
    <path fill-rule="evenodd"  fill="rgb(0, 155, 189)"
          d="M155.999,118.499 L162.0,118.499 C163.104,118.499 164.0,119.395 164.0,120.499 L164.0,126.500 C164.0,127.604 163.104,128.500 162.0,128.500 L155.999,128.500 C154.895,128.500 153.999,127.604 153.999,126.500 L153.999,120.499 C153.999,119.395 154.895,118.499 155.999,118.499 Z"/>
    <path fill-rule="evenodd"  fill="rgb(0, 155, 189)"
          d="M173.499,118.499 L179.500,118.499 C180.604,118.499 181.500,119.395 181.500,120.499 L181.500,126.500 C181.500,127.604 180.604,128.500 179.500,128.500 L173.499,128.500 C172.395,128.500 171.499,127.604 171.499,126.500 L171.499,120.499 C171.499,119.395 172.395,118.499 173.499,118.499 Z"/>
    <path fill-rule="evenodd"  fill="rgb(0, 155, 189)"
          d="M190.999,118.499 L197.0,118.499 C198.104,118.499 199.0,119.395 199.0,120.499 L199.0,126.500 C199.0,127.604 198.104,128.500 197.0,128.500 L190.999,128.500 C189.895,128.500 188.999,127.604 188.999,126.500 L188.999,120.499 C188.999,119.395 189.895,118.499 190.999,118.499 Z"/>
    <path fill-rule="evenodd"  fill="rgb(0, 155, 189)"
          d="M208.499,118.499 L214.500,118.499 C215.604,118.499 216.500,119.395 216.500,120.499 L216.500,126.500 C216.500,127.604 215.604,128.500 214.500,128.500 L208.499,128.500 C207.395,128.500 206.499,127.604 206.499,126.500 L206.499,120.499 C206.499,119.395 207.395,118.499 208.499,118.499 Z"/>
    <path fill-rule="evenodd"  fill="rgb(0, 155, 189)"
          d="M225.999,118.499 L232.0,118.499 C233.104,118.499 234.0,119.395 234.0,120.499 L234.0,126.500 C234.0,127.604 233.104,128.500 232.0,128.500 L225.999,128.500 C224.895,128.500 223.999,127.604 223.999,126.500 L223.999,120.499 C223.999,119.395 224.895,118.499 225.999,118.499 Z"/>
    <path fill-rule="evenodd"  fill="rgb(0, 155, 189)"
          d="M243.499,118.499 L249.500,118.499 C250.604,118.499 251.500,119.395 251.500,120.499 L251.500,126.500 C251.500,127.604 250.604,128.500 249.500,128.500 L243.499,128.500 C242.395,128.500 241.499,127.604 241.499,126.500 L241.499,120.499 C241.499,119.395 242.395,118.499 243.499,118.499 Z"/>
    <path fill-rule="evenodd"  fill="rgb(0, 155, 189)"
          d="M260.999,118.499 L267.0,118.499 C268.104,118.499 269.0,119.395 269.0,120.499 L269.0,126.500 C269.0,127.604 268.104,128.500 267.0,128.500 L260.999,128.500 C259.895,128.500 258.999,127.604 258.999,126.500 L258.999,120.499 C258.999,119.395 259.895,118.499 260.999,118.499 Z"/>
    <path fill-rule="evenodd"  fill="rgb(0, 155, 189)"
          d="M278.499,118.499 L284.500,118.499 C285.604,118.499 286.500,119.395 286.500,120.499 L286.500,126.500 C286.500,127.604 285.604,128.500 284.500,128.500 L278.499,128.500 C277.395,128.500 276.499,127.604 276.499,126.500 L276.499,120.499 C276.499,119.395 277.395,118.499 278.499,118.499 Z"/>
    <path fill-rule="evenodd"  fill="rgb(0, 155, 189)"
          d="M295.999,118.499 L302.0,118.499 C303.104,118.499 304.0,119.395 304.0,120.499 L304.0,126.500 C304.0,127.604 303.104,128.500 302.0,128.500 L295.999,128.500 C294.895,128.500 293.999,127.604 293.999,126.500 L293.999,120.499 C293.999,119.395 294.895,118.499 295.999,118.499 Z"/>
    <path fill-rule="evenodd"  fill="rgb(0, 155, 189)"
          d="M313.499,118.499 L319.500,118.499 C320.604,118.499 321.500,119.395 321.500,120.499 L321.500,126.500 C321.500,127.604 320.604,128.500 319.500,128.500 L313.499,128.500 C312.395,128.500 311.499,127.604 311.499,126.500 L311.499,120.499 C311.499,119.395 312.395,118.499 313.499,118.499 Z"/>
    <path fill-rule="evenodd"  fill="rgb(0, 155, 189)"
          d="M330.999,118.499 L337.0,118.499 C338.104,118.499 339.0,119.395 339.0,120.499 L339.0,126.500 C339.0,127.604 338.104,128.500 337.0,128.500 L330.999,128.500 C329.895,128.500 328.999,127.604 328.999,126.500 L328.999,120.499 C328.999,119.395 329.895,118.499 330.999,118.499 Z"/>
    <path fill-rule="evenodd"  fill="rgb(0, 155, 189)"
          d="M348.499,118.499 L354.500,118.499 C355.604,118.499 356.500,119.395 356.500,120.499 L356.500,126.500 C356.500,127.604 355.604,128.500 354.500,128.500 L348.499,128.500 C347.395,128.500 346.499,127.604 346.499,126.500 L346.499,120.499 C346.499,119.395 347.395,118.499 348.499,118.499 Z"/>
    <path fill-rule="evenodd"  fill="rgb(0, 155, 189)"
          d="M365.999,118.499 L372.0,118.499 C373.104,118.499 374.0,119.395 374.0,120.499 L374.0,126.500 C374.0,127.604 373.104,128.500 372.0,128.500 L365.999,128.500 C364.895,128.500 363.999,127.604 363.999,126.500 L363.999,120.499 C363.999,119.395 364.895,118.499 365.999,118.499 Z"/>
    <path fill-rule="evenodd"  fill="rgb(0, 155, 189)"
          d="M383.499,118.499 L389.500,118.499 C390.604,118.499 391.500,119.395 391.500,120.499 L391.500,126.500 C391.500,127.604 390.604,128.500 389.500,128.500 L383.499,128.500 C382.395,128.500 381.499,127.604 381.499,126.500 L381.499,120.499 C381.499,119.395 382.395,118.499 383.499,118.499 Z"/>
    <text kerning="auto" font-family="Myriad Pro" fill="rgb(0, 0, 0)" transform="matrix( 0.5, 0, 0, 0.5,1.12099999999998, 127.6445)" font-size="24px"><tspan font-size="24px" font-family="TT Norms" fill="#000000">&#54;</tspan></text>
    <text kerning="auto" font-family="Myriad Pro" fill="rgb(0, 0, 0)" transform="matrix( 0.5, 0, 0, 0.5,470.621, 127.6445)" font-size="24px"><tspan font-size="24px" font-family="TT Norms" fill="#000000">&#54;</tspan></text>
    <path fill-rule="evenodd"  fill="rgb(0, 155, 189)"
          d="M103.499,136.499 L109.500,136.499 C110.604,136.499 111.500,137.395 111.500,138.499 L111.500,144.500 C111.500,145.604 110.604,146.500 109.500,146.500 L103.499,146.500 C102.395,146.500 101.499,145.604 101.499,144.500 L101.499,138.499 C101.499,137.395 102.395,136.499 103.499,136.499 Z"/>
    <path fill-rule="evenodd"  fill="rgb(0, 155, 189)"
          d="M120.999,136.499 L127.0,136.499 C128.104,136.499 129.0,137.395 129.0,138.499 L129.0,144.500 C129.0,145.604 128.104,146.500 127.0,146.500 L120.999,146.500 C119.895,146.500 118.999,145.604 118.999,144.500 L118.999,138.499 C118.999,137.395 119.895,136.499 120.999,136.499 Z"/>
    <path fill-rule="evenodd"  fill="rgb(0, 155, 189)"
          d="M138.499,136.499 L144.500,136.499 C145.604,136.499 146.500,137.395 146.500,138.499 L146.500,144.500 C146.500,145.604 145.604,146.500 144.500,146.500 L138.499,146.500 C137.395,146.500 136.499,145.604 136.499,144.500 L136.499,138.499 C136.499,137.395 137.395,136.499 138.499,136.499 Z"/>
    <path fill-rule="evenodd"  fill="rgb(0, 155, 189)"
          d="M155.999,136.499 L162.0,136.499 C163.104,136.499 164.0,137.395 164.0,138.499 L164.0,144.500 C164.0,145.604 163.104,146.500 162.0,146.500 L155.999,146.500 C154.895,146.500 153.999,145.604 153.999,144.500 L153.999,138.499 C153.999,137.395 154.895,136.499 155.999,136.499 Z"/>
    <path fill-rule="evenodd"  fill="rgb(0, 155, 189)"
          d="M173.499,136.499 L179.500,136.499 C180.604,136.499 181.500,137.395 181.500,138.499 L181.500,144.500 C181.500,145.604 180.604,146.500 179.500,146.500 L173.499,146.500 C172.395,146.500 171.499,145.604 171.499,144.500 L171.499,138.499 C171.499,137.395 172.395,136.499 173.499,136.499 Z"/>
    <path fill-rule="evenodd"  fill="rgb(0, 155, 189)"
          d="M190.999,136.499 L197.0,136.499 C198.104,136.499 199.0,137.395 199.0,138.499 L199.0,144.500 C199.0,145.604 198.104,146.500 197.0,146.500 L190.999,146.500 C189.895,146.500 188.999,145.604 188.999,144.500 L188.999,138.499 C188.999,137.395 189.895,136.499 190.999,136.499 Z"/>
    <path fill-rule="evenodd"  fill="rgb(0, 155, 189)"
          d="M208.499,136.499 L214.500,136.499 C215.604,136.499 216.500,137.395 216.500,138.499 L216.500,144.500 C216.500,145.604 215.604,146.500 214.500,146.500 L208.499,146.500 C207.395,146.500 206.499,145.604 206.499,144.500 L206.499,138.499 C206.499,137.395 207.395,136.499 208.499,136.499 Z"/>
    <path fill-rule="evenodd"  fill="rgb(0, 155, 189)"
          d="M225.999,136.499 L232.0,136.499 C233.104,136.499 234.0,137.395 234.0,138.499 L234.0,144.500 C234.0,145.604 233.104,146.500 232.0,146.500 L225.999,146.500 C224.895,146.500 223.999,145.604 223.999,144.500 L223.999,138.499 C223.999,137.395 224.895,136.499 225.999,136.499 Z"/>
    <path fill-rule="evenodd"  fill="rgb(0, 155, 189)"
          d="M243.499,136.499 L249.500,136.499 C250.604,136.499 251.500,137.395 251.500,138.499 L251.500,144.500 C251.500,145.604 250.604,146.500 249.500,146.500 L243.499,146.500 C242.395,146.500 241.499,145.604 241.499,144.500 L241.499,138.499 C241.499,137.395 242.395,136.499 243.499,136.499 Z"/>
    <path fill-rule="evenodd"  fill="rgb(0, 155, 189)"
          d="M260.999,136.499 L267.0,136.499 C268.104,136.499 269.0,137.395 269.0,138.499 L269.0,144.500 C269.0,145.604 268.104,146.500 267.0,146.500 L260.999,146.500 C259.895,146.500 258.999,145.604 258.999,144.500 L258.999,138.499 C258.999,137.395 259.895,136.499 260.999,136.499 Z"/>
    <path fill-rule="evenodd"  fill="rgb(0, 155, 189)"
          d="M278.499,136.499 L284.500,136.499 C285.604,136.499 286.500,137.395 286.500,138.499 L286.500,144.500 C286.500,145.604 285.604,146.500 284.500,146.500 L278.499,146.500 C277.395,146.500 276.499,145.604 276.499,144.500 L276.499,138.499 C276.499,137.395 277.395,136.499 278.499,136.499 Z"/>
    <path fill-rule="evenodd"  fill="rgb(0, 155, 189)"
          d="M295.999,136.499 L302.0,136.499 C303.104,136.499 304.0,137.395 304.0,138.499 L304.0,144.500 C304.0,145.604 303.104,146.500 302.0,146.500 L295.999,146.500 C294.895,146.500 293.999,145.604 293.999,144.500 L293.999,138.499 C293.999,137.395 294.895,136.499 295.999,136.499 Z"/>
    <path fill-rule="evenodd"  fill="rgb(0, 155, 189)"
          d="M313.499,136.499 L319.500,136.499 C320.604,136.499 321.500,137.395 321.500,138.499 L321.500,144.500 C321.500,145.604 320.604,146.500 319.500,146.500 L313.499,146.500 C312.395,146.500 311.499,145.604 311.499,144.500 L311.499,138.499 C311.499,137.395 312.395,136.499 313.499,136.499 Z"/>
    <path fill-rule="evenodd"  fill="rgb(0, 155, 189)"
          d="M330.999,136.499 L337.0,136.499 C338.104,136.499 339.0,137.395 339.0,138.499 L339.0,144.500 C339.0,145.604 338.104,146.500 337.0,146.500 L330.999,146.500 C329.895,146.500 328.999,145.604 328.999,144.500 L328.999,138.499 C328.999,137.395 329.895,136.499 330.999,136.499 Z"/>
    <path fill-rule="evenodd"  fill="rgb(0, 155, 189)"
          d="M348.499,136.499 L354.500,136.499 C355.604,136.499 356.500,137.395 356.500,138.499 L356.500,144.500 C356.500,145.604 355.604,146.500 354.500,146.500 L348.499,146.500 C347.395,146.500 346.499,145.604 346.499,144.500 L346.499,138.499 C346.499,137.395 347.395,136.499 348.499,136.499 Z"/>
    <path fill-rule="evenodd"  fill="rgb(0, 155, 189)"
          d="M365.999,136.499 L372.0,136.499 C373.104,136.499 374.0,137.395 374.0,138.499 L374.0,144.500 C374.0,145.604 373.104,146.500 372.0,146.500 L365.999,146.500 C364.895,146.500 363.999,145.604 363.999,144.500 L363.999,138.499 C363.999,137.395 364.895,136.499 365.999,136.499 Z"/>
    <path fill-rule="evenodd"  fill="rgb(0, 155, 189)"
          d="M383.499,136.499 L389.500,136.499 C390.604,136.499 391.500,137.395 391.500,138.499 L391.500,144.500 C391.500,145.604 390.604,146.500 389.500,146.500 L383.499,146.500 C382.395,146.500 381.499,145.604 381.499,144.500 L381.499,138.499 C381.499,137.395 382.395,136.499 383.499,136.499 Z"/>
    <text kerning="auto" font-family="Myriad Pro" fill="rgb(0, 0, 0)" transform="matrix( 0.5, 0, 0, 0.5,0.85950000000003, 145.703)" font-size="24px"><tspan font-size="24px" font-family="TT Norms" fill="#000000">&#55;</tspan></text>
    <text kerning="auto" font-family="Myriad Pro" fill="rgb(0, 0, 0)" transform="matrix( 0.5, 0, 0, 0.5,470.3595, 145.703)" font-size="24px"><tspan font-size="24px" font-family="TT Norms" fill="#000000">&#55;</tspan></text>
    <path fill-rule="evenodd"  fill="rgb(0, 155, 189)"
          d="M103.499,154.499 L109.500,154.499 C110.604,154.499 111.500,155.395 111.500,156.499 L111.500,162.500 C111.500,163.604 110.604,164.500 109.500,164.500 L103.499,164.500 C102.395,164.500 101.499,163.604 101.499,162.500 L101.499,156.499 C101.499,155.395 102.395,154.499 103.499,154.499 Z"/>
    <path fill-rule="evenodd"  fill="rgb(0, 155, 189)"
          d="M120.999,154.499 L127.0,154.499 C128.104,154.499 129.0,155.395 129.0,156.499 L129.0,162.500 C129.0,163.604 128.104,164.500 127.0,164.500 L120.999,164.500 C119.895,164.500 118.999,163.604 118.999,162.500 L118.999,156.499 C118.999,155.395 119.895,154.499 120.999,154.499 Z"/>
    <path fill-rule="evenodd"  fill="rgb(0, 155, 189)"
          d="M138.499,154.499 L144.500,154.499 C145.604,154.499 146.500,155.395 146.500,156.499 L146.500,162.500 C146.500,163.604 145.604,164.500 144.500,164.500 L138.499,164.500 C137.395,164.500 136.499,163.604 136.499,162.500 L136.499,156.499 C136.499,155.395 137.395,154.499 138.499,154.499 Z"/>
    <path fill-rule="evenodd"  fill="rgb(0, 155, 189)"
          d="M155.999,154.499 L162.0,154.499 C163.104,154.499 164.0,155.395 164.0,156.499 L164.0,162.500 C164.0,163.604 163.104,164.500 162.0,164.500 L155.999,164.500 C154.895,164.500 153.999,163.604 153.999,162.500 L153.999,156.499 C153.999,155.395 154.895,154.499 155.999,154.499 Z"/>
    <path fill-rule="evenodd"  fill="rgb(0, 155, 189)"
          d="M173.499,154.499 L179.500,154.499 C180.604,154.499 181.500,155.395 181.500,156.499 L181.500,162.500 C181.500,163.604 180.604,164.500 179.500,164.500 L173.499,164.500 C172.395,164.500 171.499,163.604 171.499,162.500 L171.499,156.499 C171.499,155.395 172.395,154.499 173.499,154.499 Z"/>
    <path fill-rule="evenodd"  fill="rgb(0, 155, 189)"
          d="M190.999,154.499 L197.0,154.499 C198.104,154.499 199.0,155.395 199.0,156.499 L199.0,162.500 C199.0,163.604 198.104,164.500 197.0,164.500 L190.999,164.500 C189.895,164.500 188.999,163.604 188.999,162.500 L188.999,156.499 C188.999,155.395 189.895,154.499 190.999,154.499 Z"/>
    <path fill-rule="evenodd"  fill="rgb(0, 155, 189)"
          d="M208.499,154.499 L214.500,154.499 C215.604,154.499 216.500,155.395 216.500,156.499 L216.500,162.500 C216.500,163.604 215.604,164.500 214.500,164.500 L208.499,164.500 C207.395,164.500 206.499,163.604 206.499,162.500 L206.499,156.499 C206.499,155.395 207.395,154.499 208.499,154.499 Z"/>
    <path fill-rule="evenodd"  fill="rgb(0, 155, 189)"
          d="M225.999,154.499 L232.0,154.499 C233.104,154.499 234.0,155.395 234.0,156.499 L234.0,162.500 C234.0,163.604 233.104,164.500 232.0,164.500 L225.999,164.500 C224.895,164.500 223.999,163.604 223.999,162.500 L223.999,156.499 C223.999,155.395 224.895,154.499 225.999,154.499 Z"/>
    <path fill-rule="evenodd"  fill="rgb(0, 155, 189)"
          d="M243.499,154.499 L249.500,154.499 C250.604,154.499 251.500,155.395 251.500,156.499 L251.500,162.500 C251.500,163.604 250.604,164.500 249.500,164.500 L243.499,164.500 C242.395,164.500 241.499,163.604 241.499,162.500 L241.499,156.499 C241.499,155.395 242.395,154.499 243.499,154.499 Z"/>
    <path fill-rule="evenodd"  fill="rgb(0, 155, 189)"
          d="M260.999,154.499 L267.0,154.499 C268.104,154.499 269.0,155.395 269.0,156.499 L269.0,162.500 C269.0,163.604 268.104,164.500 267.0,164.500 L260.999,164.500 C259.895,164.500 258.999,163.604 258.999,162.500 L258.999,156.499 C258.999,155.395 259.895,154.499 260.999,154.499 Z"/>
    <path fill-rule="evenodd"  fill="rgb(0, 155, 189)"
          d="M278.499,154.499 L284.500,154.499 C285.604,154.499 286.500,155.395 286.500,156.499 L286.500,162.500 C286.500,163.604 285.604,164.500 284.500,164.500 L278.499,164.500 C277.395,164.500 276.499,163.604 276.499,162.500 L276.499,156.499 C276.499,155.395 277.395,154.499 278.499,154.499 Z"/>
    <path fill-rule="evenodd"  fill="rgb(0, 155, 189)"
          d="M295.999,154.499 L302.0,154.499 C303.104,154.499 304.0,155.395 304.0,156.499 L304.0,162.500 C304.0,163.604 303.104,164.500 302.0,164.500 L295.999,164.500 C294.895,164.500 293.999,163.604 293.999,162.500 L293.999,156.499 C293.999,155.395 294.895,154.499 295.999,154.499 Z"/>
    <path fill-rule="evenodd"  fill="rgb(0, 155, 189)"
          d="M313.499,154.499 L319.500,154.499 C320.604,154.499 321.500,155.395 321.500,156.499 L321.500,162.500 C321.500,163.604 320.604,164.500 319.500,164.500 L313.499,164.500 C312.395,164.500 311.499,163.604 311.499,162.500 L311.499,156.499 C311.499,155.395 312.395,154.499 313.499,154.499 Z"/>
    <path fill-rule="evenodd"  fill="rgb(0, 155, 189)"
          d="M330.999,154.499 L337.0,154.499 C338.104,154.499 339.0,155.395 339.0,156.499 L339.0,162.500 C339.0,163.604 338.104,164.500 337.0,164.500 L330.999,164.500 C329.895,164.500 328.999,163.604 328.999,162.500 L328.999,156.499 C328.999,155.395 329.895,154.499 330.999,154.499 Z"/>
    <path fill-rule="evenodd"  fill="rgb(0, 155, 189)"
          d="M348.499,154.499 L354.500,154.499 C355.604,154.499 356.500,155.395 356.500,156.499 L356.500,162.500 C356.500,163.604 355.604,164.500 354.500,164.500 L348.499,164.500 C347.395,164.500 346.499,163.604 346.499,162.500 L346.499,156.499 C346.499,155.395 347.395,154.499 348.499,154.499 Z"/>
    <path fill-rule="evenodd"  fill="rgb(0, 155, 189)"
          d="M365.999,154.499 L372.0,154.499 C373.104,154.499 374.0,155.395 374.0,156.499 L374.0,162.500 C374.0,163.604 373.104,164.500 372.0,164.500 L365.999,164.500 C364.895,164.500 363.999,163.604 363.999,162.500 L363.999,156.499 C363.999,155.395 364.895,154.499 365.999,154.499 Z"/>
    <path fill-rule="evenodd"  fill="rgb(0, 155, 189)"
          d="M383.499,154.499 L389.500,154.499 C390.604,154.499 391.500,155.395 391.500,156.499 L391.500,162.500 C391.500,163.604 390.604,164.500 389.500,164.500 L383.499,164.500 C382.395,164.500 381.499,163.604 381.499,162.500 L381.499,156.499 C381.499,155.395 382.395,154.499 383.499,154.499 Z"/>
    <text kerning="auto" font-family="Myriad Pro" fill="rgb(0, 0, 0)" transform="matrix( 0.5, 0, 0, 0.5,1.17975000000001, 163.70325)" font-size="24px"><tspan font-size="24px" font-family="TT Norms" fill="#000000">&#56;</tspan></text>
    <text kerning="auto" font-family="Myriad Pro" fill="rgb(0, 0, 0)" transform="matrix( 0.5, 0, 0, 0.5,470.67975, 163.70325)" font-size="24px"><tspan font-size="24px" font-family="TT Norms" fill="#000000">&#56;</tspan></text>
    <path fill-rule="evenodd"  fill="rgb(0, 155, 189)"
          d="M103.499,172.499 L109.500,172.499 C110.604,172.499 111.500,173.395 111.500,174.499 L111.500,180.500 C111.500,181.604 110.604,182.500 109.500,182.500 L103.499,182.500 C102.395,182.500 101.499,181.604 101.499,180.500 L101.499,174.499 C101.499,173.395 102.395,172.499 103.499,172.499 Z"/>
    <path fill-rule="evenodd"  fill="rgb(0, 155, 189)"
          d="M120.999,172.499 L127.0,172.499 C128.104,172.499 129.0,173.395 129.0,174.499 L129.0,180.500 C129.0,181.604 128.104,182.500 127.0,182.500 L120.999,182.500 C119.895,182.500 118.999,181.604 118.999,180.500 L118.999,174.499 C118.999,173.395 119.895,172.499 120.999,172.499 Z"/>
    <path fill-rule="evenodd"  fill="rgb(0, 155, 189)"
          d="M138.499,172.499 L144.500,172.499 C145.604,172.499 146.500,173.395 146.500,174.499 L146.500,180.500 C146.500,181.604 145.604,182.500 144.500,182.500 L138.499,182.500 C137.395,182.500 136.499,181.604 136.499,180.500 L136.499,174.499 C136.499,173.395 137.395,172.499 138.499,172.499 Z"/>
    <path fill-rule="evenodd"  fill="rgb(0, 155, 189)"
          d="M155.999,172.499 L162.0,172.499 C163.104,172.499 164.0,173.395 164.0,174.499 L164.0,180.500 C164.0,181.604 163.104,182.500 162.0,182.500 L155.999,182.500 C154.895,182.500 153.999,181.604 153.999,180.500 L153.999,174.499 C153.999,173.395 154.895,172.499 155.999,172.499 Z"/>
    <path fill-rule="evenodd"  fill="rgb(0, 155, 189)"
          d="M173.499,172.499 L179.500,172.499 C180.604,172.499 181.500,173.395 181.500,174.499 L181.500,180.500 C181.500,181.604 180.604,182.500 179.500,182.500 L173.499,182.500 C172.395,182.500 171.499,181.604 171.499,180.500 L171.499,174.499 C171.499,173.395 172.395,172.499 173.499,172.499 Z"/>
    <path fill-rule="evenodd"  fill="rgb(0, 155, 189)"
          d="M190.999,172.499 L197.0,172.499 C198.104,172.499 199.0,173.395 199.0,174.499 L199.0,180.500 C199.0,181.604 198.104,182.500 197.0,182.500 L190.999,182.500 C189.895,182.500 188.999,181.604 188.999,180.500 L188.999,174.499 C188.999,173.395 189.895,172.499 190.999,172.499 Z"/>
    <path fill-rule="evenodd"  fill="rgb(0, 155, 189)"
          d="M208.499,172.499 L214.500,172.499 C215.604,172.499 216.500,173.395 216.500,174.499 L216.500,180.500 C216.500,181.604 215.604,182.500 214.500,182.500 L208.499,182.500 C207.395,182.500 206.499,181.604 206.499,180.500 L206.499,174.499 C206.499,173.395 207.395,172.499 208.499,172.499 Z"/>
    <path fill-rule="evenodd"  fill="rgb(0, 155, 189)"
          d="M225.999,172.499 L232.0,172.499 C233.104,172.499 234.0,173.395 234.0,174.499 L234.0,180.500 C234.0,181.604 233.104,182.500 232.0,182.500 L225.999,182.500 C224.895,182.500 223.999,181.604 223.999,180.500 L223.999,174.499 C223.999,173.395 224.895,172.499 225.999,172.499 Z"/>
    <path fill-rule="evenodd"  fill="rgb(0, 155, 189)"
          d="M243.499,172.499 L249.500,172.499 C250.604,172.499 251.500,173.395 251.500,174.499 L251.500,180.500 C251.500,181.604 250.604,182.500 249.500,182.500 L243.499,182.500 C242.395,182.500 241.499,181.604 241.499,180.500 L241.499,174.499 C241.499,173.395 242.395,172.499 243.499,172.499 Z"/>
    <path fill-rule="evenodd"  fill="rgb(0, 155, 189)"
          d="M260.999,172.499 L267.0,172.499 C268.104,172.499 269.0,173.395 269.0,174.499 L269.0,180.500 C269.0,181.604 268.104,182.500 267.0,182.500 L260.999,182.500 C259.895,182.500 258.999,181.604 258.999,180.500 L258.999,174.499 C258.999,173.395 259.895,172.499 260.999,172.499 Z"/>
    <path fill-rule="evenodd"  fill="rgb(0, 155, 189)"
          d="M278.499,172.499 L284.500,172.499 C285.604,172.499 286.500,173.395 286.500,174.499 L286.500,180.500 C286.500,181.604 285.604,182.500 284.500,182.500 L278.499,182.500 C277.395,182.500 276.499,181.604 276.499,180.500 L276.499,174.499 C276.499,173.395 277.395,172.499 278.499,172.499 Z"/>
    <path fill-rule="evenodd"  fill="rgb(0, 155, 189)"
          d="M295.999,172.499 L302.0,172.499 C303.104,172.499 304.0,173.395 304.0,174.499 L304.0,180.500 C304.0,181.604 303.104,182.500 302.0,182.500 L295.999,182.500 C294.895,182.500 293.999,181.604 293.999,180.500 L293.999,174.499 C293.999,173.395 294.895,172.499 295.999,172.499 Z"/>
    <path fill-rule="evenodd"  fill="rgb(0, 155, 189)"
          d="M313.499,172.499 L319.500,172.499 C320.604,172.499 321.500,173.395 321.500,174.499 L321.500,180.500 C321.500,181.604 320.604,182.500 319.500,182.500 L313.499,182.500 C312.395,182.500 311.499,181.604 311.499,180.500 L311.499,174.499 C311.499,173.395 312.395,172.499 313.499,172.499 Z"/>
    <path fill-rule="evenodd"  fill="rgb(0, 155, 189)"
          d="M330.999,172.499 L337.0,172.499 C338.104,172.499 339.0,173.395 339.0,174.499 L339.0,180.500 C339.0,181.604 338.104,182.500 337.0,182.500 L330.999,182.500 C329.895,182.500 328.999,181.604 328.999,180.500 L328.999,174.499 C328.999,173.395 329.895,172.499 330.999,172.499 Z"/>
    <path fill-rule="evenodd"  fill="rgb(0, 155, 189)"
          d="M348.499,172.499 L354.500,172.499 C355.604,172.499 356.500,173.395 356.500,174.499 L356.500,180.500 C356.500,181.604 355.604,182.500 354.500,182.500 L348.499,182.500 C347.395,182.500 346.499,181.604 346.499,180.500 L346.499,174.499 C346.499,173.395 347.395,172.499 348.499,172.499 Z"/>
    <path fill-rule="evenodd"  fill="rgb(0, 155, 189)"
          d="M365.999,172.499 L372.0,172.499 C373.104,172.499 374.0,173.395 374.0,174.499 L374.0,180.500 C374.0,181.604 373.104,182.500 372.0,182.500 L365.999,182.500 C364.895,182.500 363.999,181.604 363.999,180.500 L363.999,174.499 C363.999,173.395 364.895,172.499 365.999,172.499 Z"/>
    <path fill-rule="evenodd"  fill="rgb(0, 155, 189)"
          d="M383.499,172.499 L389.500,172.499 C390.604,172.499 391.500,173.395 391.500,174.499 L391.500,180.500 C391.500,181.604 390.604,182.500 389.500,182.500 L383.499,182.500 C382.395,182.500 381.499,181.604 381.499,180.500 L381.499,174.499 C381.499,173.395 382.395,172.499 383.499,172.499 Z"/>
    <text kerning="auto" font-family="Myriad Pro" fill="rgb(0, 0, 0)" transform="matrix( 0.5, 0, 0, 0.5,1.12099999999998, 181.76175)" font-size="24px"><tspan font-size="24px" font-family="TT Norms" fill="#000000">&#57;</tspan></text>
    <text kerning="auto" font-family="Myriad Pro" fill="rgb(0, 0, 0)" transform="matrix( 0.5, 0, 0, 0.5,470.621, 181.76175)" font-size="24px"><tspan font-size="24px" font-family="TT Norms" fill="#000000">&#57;</tspan></text>
    <path fill-rule="evenodd"  fill="rgb(0, 155, 189)"
          d="M103.499,190.499 L109.500,190.499 C110.604,190.499 111.500,191.395 111.500,192.499 L111.500,198.500 C111.500,199.604 110.604,200.500 109.500,200.500 L103.499,200.500 C102.395,200.500 101.499,199.604 101.499,198.500 L101.499,192.499 C101.499,191.395 102.395,190.499 103.499,190.499 Z"/>
    <path fill-rule="evenodd"  fill="rgb(0, 155, 189)"
          d="M120.999,190.499 L127.0,190.499 C128.104,190.499 129.0,191.395 129.0,192.499 L129.0,198.500 C129.0,199.604 128.104,200.500 127.0,200.500 L120.999,200.500 C119.895,200.500 118.999,199.604 118.999,198.500 L118.999,192.499 C118.999,191.395 119.895,190.499 120.999,190.499 Z"/>
    <path fill-rule="evenodd"  fill="rgb(0, 155, 189)"
          d="M138.499,190.499 L144.500,190.499 C145.604,190.499 146.500,191.395 146.500,192.499 L146.500,198.500 C146.500,199.604 145.604,200.500 144.500,200.500 L138.499,200.500 C137.395,200.500 136.499,199.604 136.499,198.500 L136.499,192.499 C136.499,191.395 137.395,190.499 138.499,190.499 Z"/>
    <path fill-rule="evenodd"  fill="rgb(0, 155, 189)"
          d="M155.999,190.499 L162.0,190.499 C163.104,190.499 164.0,191.395 164.0,192.499 L164.0,198.500 C164.0,199.604 163.104,200.500 162.0,200.500 L155.999,200.500 C154.895,200.500 153.999,199.604 153.999,198.500 L153.999,192.499 C153.999,191.395 154.895,190.499 155.999,190.499 Z"/>
    <path fill-rule="evenodd"  fill="rgb(0, 155, 189)"
          d="M173.499,190.499 L179.500,190.499 C180.604,190.499 181.500,191.395 181.500,192.499 L181.500,198.500 C181.500,199.604 180.604,200.500 179.500,200.500 L173.499,200.500 C172.395,200.500 171.499,199.604 171.499,198.500 L171.499,192.499 C171.499,191.395 172.395,190.499 173.499,190.499 Z"/>
    <path fill-rule="evenodd"  fill="rgb(0, 155, 189)"
          d="M190.999,190.499 L197.0,190.499 C198.104,190.499 199.0,191.395 199.0,192.499 L199.0,198.500 C199.0,199.604 198.104,200.500 197.0,200.500 L190.999,200.500 C189.895,200.500 188.999,199.604 188.999,198.500 L188.999,192.499 C188.999,191.395 189.895,190.499 190.999,190.499 Z"/>
    <path fill-rule="evenodd"  fill="rgb(0, 155, 189)"
          d="M208.499,190.499 L214.500,190.499 C215.604,190.499 216.500,191.395 216.500,192.499 L216.500,198.500 C216.500,199.604 215.604,200.500 214.500,200.500 L208.499,200.500 C207.395,200.500 206.499,199.604 206.499,198.500 L206.499,192.499 C206.499,191.395 207.395,190.499 208.499,190.499 Z"/>
    <path fill-rule="evenodd"  fill="rgb(0, 155, 189)"
          d="M225.999,190.499 L232.0,190.499 C233.104,190.499 234.0,191.395 234.0,192.499 L234.0,198.500 C234.0,199.604 233.104,200.500 232.0,200.500 L225.999,200.500 C224.895,200.500 223.999,199.604 223.999,198.500 L223.999,192.499 C223.999,191.395 224.895,190.499 225.999,190.499 Z"/>
    <path fill-rule="evenodd"  fill="rgb(0, 155, 189)"
          d="M243.499,190.499 L249.500,190.499 C250.604,190.499 251.500,191.395 251.500,192.499 L251.500,198.500 C251.500,199.604 250.604,200.500 249.500,200.500 L243.499,200.500 C242.395,200.500 241.499,199.604 241.499,198.500 L241.499,192.499 C241.499,191.395 242.395,190.499 243.499,190.499 Z"/>
    <path fill-rule="evenodd"  fill="rgb(0, 155, 189)"
          d="M260.999,190.499 L267.0,190.499 C268.104,190.499 269.0,191.395 269.0,192.499 L269.0,198.500 C269.0,199.604 268.104,200.500 267.0,200.500 L260.999,200.500 C259.895,200.500 258.999,199.604 258.999,198.500 L258.999,192.499 C258.999,191.395 259.895,190.499 260.999,190.499 Z"/>
    <path fill-rule="evenodd"  fill="rgb(0, 155, 189)"
          d="M278.499,190.499 L284.500,190.499 C285.604,190.499 286.500,191.395 286.500,192.499 L286.500,198.500 C286.500,199.604 285.604,200.500 284.500,200.500 L278.499,200.500 C277.395,200.500 276.499,199.604 276.499,198.500 L276.499,192.499 C276.499,191.395 277.395,190.499 278.499,190.499 Z"/>
    <path fill-rule="evenodd"  fill="rgb(0, 155, 189)"
          d="M295.999,190.499 L302.0,190.499 C303.104,190.499 304.0,191.395 304.0,192.499 L304.0,198.500 C304.0,199.604 303.104,200.500 302.0,200.500 L295.999,200.500 C294.895,200.500 293.999,199.604 293.999,198.500 L293.999,192.499 C293.999,191.395 294.895,190.499 295.999,190.499 Z"/>
    <path fill-rule="evenodd"  fill="rgb(0, 155, 189)"
          d="M313.499,190.499 L319.500,190.499 C320.604,190.499 321.500,191.395 321.500,192.499 L321.500,198.500 C321.500,199.604 320.604,200.500 319.500,200.500 L313.499,200.500 C312.395,200.500 311.499,199.604 311.499,198.500 L311.499,192.499 C311.499,191.395 312.395,190.499 313.499,190.499 Z"/>
    <path fill-rule="evenodd"  fill="rgb(0, 155, 189)"
          d="M330.999,190.499 L337.0,190.499 C338.104,190.499 339.0,191.395 339.0,192.499 L339.0,198.500 C339.0,199.604 338.104,200.500 337.0,200.500 L330.999,200.500 C329.895,200.500 328.999,199.604 328.999,198.500 L328.999,192.499 C328.999,191.395 329.895,190.499 330.999,190.499 Z"/>
    <path fill-rule="evenodd"  fill="rgb(0, 155, 189)"
          d="M348.499,190.499 L354.500,190.499 C355.604,190.499 356.500,191.395 356.500,192.499 L356.500,198.500 C356.500,199.604 355.604,200.500 354.500,200.500 L348.499,200.500 C347.395,200.500 346.499,199.604 346.499,198.500 L346.499,192.499 C346.499,191.395 347.395,190.499 348.499,190.499 Z"/>
    <path fill-rule="evenodd"  fill="rgb(0, 155, 189)"
          d="M365.999,190.499 L372.0,190.499 C373.104,190.499 374.0,191.395 374.0,192.499 L374.0,198.500 C374.0,199.604 373.104,200.500 372.0,200.500 L365.999,200.500 C364.895,200.500 363.999,199.604 363.999,198.500 L363.999,192.499 C363.999,191.395 364.895,190.499 365.999,190.499 Z"/>
    <path fill-rule="evenodd"  fill="rgb(0, 155, 189)"
          d="M383.499,190.499 L389.500,190.499 C390.604,190.499 391.500,191.395 391.500,192.499 L391.500,198.500 C391.500,199.604 390.604,200.500 389.500,200.500 L383.499,200.500 C382.395,200.500 381.499,199.604 381.499,198.500 L381.499,192.499 C381.499,191.395 382.395,190.499 383.499,190.499 Z"/>
    <text kerning="auto" font-family="Myriad Pro" fill="rgb(0, 0, 0)" transform="matrix( 0.5, 0, 0, 0.5,1.42200000000003, 199.70325)" font-size="24px"><tspan font-size="24px" font-family="TT Norms" fill="#000000">&#49;&#48;</tspan></text>
    <text kerning="auto" font-family="Myriad Pro" fill="rgb(0, 0, 0)" transform="matrix( 0.5, 0, 0, 0.5,464.422, 199.70325)" font-size="24px"><tspan font-size="24px" font-family="TT Norms" fill="#000000">&#49;&#48;</tspan></text>
    <path fill-rule="evenodd"  fill="rgb(0, 155, 189)"
          d="M103.499,208.499 L109.500,208.499 C110.604,208.499 111.500,209.395 111.500,210.499 L111.500,216.500 C111.500,217.604 110.604,218.500 109.500,218.500 L103.499,218.500 C102.395,218.500 101.499,217.604 101.499,216.500 L101.499,210.499 C101.499,209.395 102.395,208.499 103.499,208.499 Z"/>
    <path fill-rule="evenodd"  fill="rgb(0, 155, 189)"
          d="M120.999,208.499 L127.0,208.499 C128.104,208.499 129.0,209.395 129.0,210.499 L129.0,216.500 C129.0,217.604 128.104,218.500 127.0,218.500 L120.999,218.500 C119.895,218.500 118.999,217.604 118.999,216.500 L118.999,210.499 C118.999,209.395 119.895,208.499 120.999,208.499 Z"/>
    <path fill-rule="evenodd"  fill="rgb(0, 155, 189)"
          d="M138.499,208.499 L144.500,208.499 C145.604,208.499 146.500,209.395 146.500,210.499 L146.500,216.500 C146.500,217.604 145.604,218.500 144.500,218.500 L138.499,218.500 C137.395,218.500 136.499,217.604 136.499,216.500 L136.499,210.499 C136.499,209.395 137.395,208.499 138.499,208.499 Z"/>
    <path fill-rule="evenodd"  fill="rgb(0, 155, 189)"
          d="M155.999,208.499 L162.0,208.499 C163.104,208.499 164.0,209.395 164.0,210.499 L164.0,216.500 C164.0,217.604 163.104,218.500 162.0,218.500 L155.999,218.500 C154.895,218.500 153.999,217.604 153.999,216.500 L153.999,210.499 C153.999,209.395 154.895,208.499 155.999,208.499 Z"/>
    <path fill-rule="evenodd"  fill="rgb(0, 155, 189)"
          d="M173.499,208.499 L179.500,208.499 C180.604,208.499 181.500,209.395 181.500,210.499 L181.500,216.500 C181.500,217.604 180.604,218.500 179.500,218.500 L173.499,218.500 C172.395,218.500 171.499,217.604 171.499,216.500 L171.499,210.499 C171.499,209.395 172.395,208.499 173.499,208.499 Z"/>
    <path fill-rule="evenodd"  fill="rgb(0, 155, 189)"
          d="M190.999,208.499 L197.0,208.499 C198.104,208.499 199.0,209.395 199.0,210.499 L199.0,216.500 C199.0,217.604 198.104,218.500 197.0,218.500 L190.999,218.500 C189.895,218.500 188.999,217.604 188.999,216.500 L188.999,210.499 C188.999,209.395 189.895,208.499 190.999,208.499 Z"/>
    <path fill-rule="evenodd"  fill="rgb(0, 155, 189)"
          d="M208.499,208.499 L214.500,208.499 C215.604,208.499 216.500,209.395 216.500,210.499 L216.500,216.500 C216.500,217.604 215.604,218.500 214.500,218.500 L208.499,218.500 C207.395,218.500 206.499,217.604 206.499,216.500 L206.499,210.499 C206.499,209.395 207.395,208.499 208.499,208.499 Z"/>
    <path fill-rule="evenodd"  fill="rgb(0, 155, 189)"
          d="M225.999,208.499 L232.0,208.499 C233.104,208.499 234.0,209.395 234.0,210.499 L234.0,216.500 C234.0,217.604 233.104,218.500 232.0,218.500 L225.999,218.500 C224.895,218.500 223.999,217.604 223.999,216.500 L223.999,210.499 C223.999,209.395 224.895,208.499 225.999,208.499 Z"/>
    <path fill-rule="evenodd"  fill="rgb(0, 155, 189)"
          d="M243.499,208.499 L249.500,208.499 C250.604,208.499 251.500,209.395 251.500,210.499 L251.500,216.500 C251.500,217.604 250.604,218.500 249.500,218.500 L243.499,218.500 C242.395,218.500 241.499,217.604 241.499,216.500 L241.499,210.499 C241.499,209.395 242.395,208.499 243.499,208.499 Z"/>
    <path fill-rule="evenodd"  fill="rgb(0, 155, 189)"
          d="M260.999,208.499 L267.0,208.499 C268.104,208.499 269.0,209.395 269.0,210.499 L269.0,216.500 C269.0,217.604 268.104,218.500 267.0,218.500 L260.999,218.500 C259.895,218.500 258.999,217.604 258.999,216.500 L258.999,210.499 C258.999,209.395 259.895,208.499 260.999,208.499 Z"/>
    <path fill-rule="evenodd"  fill="rgb(0, 155, 189)"
          d="M278.499,208.499 L284.500,208.499 C285.604,208.499 286.500,209.395 286.500,210.499 L286.500,216.500 C286.500,217.604 285.604,218.500 284.500,218.500 L278.499,218.500 C277.395,218.500 276.499,217.604 276.499,216.500 L276.499,210.499 C276.499,209.395 277.395,208.499 278.499,208.499 Z"/>
    <path fill-rule="evenodd"  fill="rgb(0, 155, 189)"
          d="M295.999,208.499 L302.0,208.499 C303.104,208.499 304.0,209.395 304.0,210.499 L304.0,216.500 C304.0,217.604 303.104,218.500 302.0,218.500 L295.999,218.500 C294.895,218.500 293.999,217.604 293.999,216.500 L293.999,210.499 C293.999,209.395 294.895,208.499 295.999,208.499 Z"/>
    <path fill-rule="evenodd"  fill="rgb(0, 155, 189)"
          d="M313.499,208.499 L319.500,208.499 C320.604,208.499 321.500,209.395 321.500,210.499 L321.500,216.500 C321.500,217.604 320.604,218.500 319.500,218.500 L313.499,218.500 C312.395,218.500 311.499,217.604 311.499,216.500 L311.499,210.499 C311.499,209.395 312.395,208.499 313.499,208.499 Z"/>
    <path fill-rule="evenodd"  fill="rgb(0, 155, 189)"
          d="M330.999,208.499 L337.0,208.499 C338.104,208.499 339.0,209.395 339.0,210.499 L339.0,216.500 C339.0,217.604 338.104,218.500 337.0,218.500 L330.999,218.500 C329.895,218.500 328.999,217.604 328.999,216.500 L328.999,210.499 C328.999,209.395 329.895,208.499 330.999,208.499 Z"/>
    <path fill-rule="evenodd"  fill="rgb(0, 155, 189)"
          d="M348.499,208.499 L354.500,208.499 C355.604,208.499 356.500,209.395 356.500,210.499 L356.500,216.500 C356.500,217.604 355.604,218.500 354.500,218.500 L348.499,218.500 C347.395,218.500 346.499,217.604 346.499,216.500 L346.499,210.499 C346.499,209.395 347.395,208.499 348.499,208.499 Z"/>
    <path fill-rule="evenodd"  fill="rgb(0, 155, 189)"
          d="M365.999,208.499 L372.0,208.499 C373.104,208.499 374.0,209.395 374.0,210.499 L374.0,216.500 C374.0,217.604 373.104,218.500 372.0,218.500 L365.999,218.500 C364.895,218.500 363.999,217.604 363.999,216.500 L363.999,210.499 C363.999,209.395 364.895,208.499 365.999,208.499 Z"/>
    <path fill-rule="evenodd"  fill="rgb(0, 155, 189)"
          d="M383.499,208.499 L389.500,208.499 C390.604,208.499 391.500,209.395 391.500,210.499 L391.500,216.500 C391.500,217.604 390.604,218.500 389.500,218.500 L383.499,218.500 C382.395,218.500 381.499,217.604 381.499,216.500 L381.499,210.499 C381.499,209.395 382.395,208.499 383.499,208.499 Z"/>
    <text kerning="auto" font-family="Myriad Pro" fill="rgb(0, 0, 0)" transform="matrix( 0.5, 0, 0, 0.5,1.17200000000003, 217.703)" font-size="24px"><tspan font-size="24px" font-family="TT Norms" fill="#000000">&#49;&#49;</tspan></text>
    <text kerning="auto" font-family="Myriad Pro" fill="rgb(0, 0, 0)" transform="matrix( 0.5, 0, 0, 0.5,468.172, 217.703)" font-size="24px"><tspan font-size="24px" font-family="TT Norms" fill="#000000">&#49;&#49;</tspan></text>
    <path fill-rule="evenodd"  fill="rgb(0, 155, 189)"
          d="M103.499,226.499 L109.500,226.499 C110.604,226.499 111.500,227.395 111.500,228.499 L111.500,234.500 C111.500,235.604 110.604,236.500 109.500,236.500 L103.499,236.500 C102.395,236.500 101.499,235.604 101.499,234.500 L101.499,228.499 C101.499,227.395 102.395,226.499 103.499,226.499 Z"/>
    <path fill-rule="evenodd"  fill="rgb(0, 155, 189)"
          d="M120.999,226.499 L127.0,226.499 C128.104,226.499 129.0,227.395 129.0,228.499 L129.0,234.500 C129.0,235.604 128.104,236.500 127.0,236.500 L120.999,236.500 C119.895,236.500 118.999,235.604 118.999,234.500 L118.999,228.499 C118.999,227.395 119.895,226.499 120.999,226.499 Z"/>
    <path fill-rule="evenodd"  fill="rgb(0, 155, 189)"
          d="M138.499,226.499 L144.500,226.499 C145.604,226.499 146.500,227.395 146.500,228.499 L146.500,234.500 C146.500,235.604 145.604,236.500 144.500,236.500 L138.499,236.500 C137.395,236.500 136.499,235.604 136.499,234.500 L136.499,228.499 C136.499,227.395 137.395,226.499 138.499,226.499 Z"/>
    <path fill-rule="evenodd"  fill="rgb(0, 155, 189)"
          d="M155.999,226.499 L162.0,226.499 C163.104,226.499 164.0,227.395 164.0,228.499 L164.0,234.500 C164.0,235.604 163.104,236.500 162.0,236.500 L155.999,236.500 C154.895,236.500 153.999,235.604 153.999,234.500 L153.999,228.499 C153.999,227.395 154.895,226.499 155.999,226.499 Z"/>
    <path fill-rule="evenodd"  fill="rgb(0, 155, 189)"
          d="M173.499,226.499 L179.500,226.499 C180.604,226.499 181.500,227.395 181.500,228.499 L181.500,234.500 C181.500,235.604 180.604,236.500 179.500,236.500 L173.499,236.500 C172.395,236.500 171.499,235.604 171.499,234.500 L171.499,228.499 C171.499,227.395 172.395,226.499 173.499,226.499 Z"/>
    <path fill-rule="evenodd"  fill="rgb(0, 155, 189)"
          d="M190.999,226.499 L197.0,226.499 C198.104,226.499 199.0,227.395 199.0,228.499 L199.0,234.500 C199.0,235.604 198.104,236.500 197.0,236.500 L190.999,236.500 C189.895,236.500 188.999,235.604 188.999,234.500 L188.999,228.499 C188.999,227.395 189.895,226.499 190.999,226.499 Z"/>
    <path fill-rule="evenodd"  fill="rgb(0, 155, 189)"
          d="M208.499,226.499 L214.500,226.499 C215.604,226.499 216.500,227.395 216.500,228.499 L216.500,234.500 C216.500,235.604 215.604,236.500 214.500,236.500 L208.499,236.500 C207.395,236.500 206.499,235.604 206.499,234.500 L206.499,228.499 C206.499,227.395 207.395,226.499 208.499,226.499 Z"/>
    <path fill-rule="evenodd"  fill="rgb(0, 155, 189)"
          d="M225.999,226.499 L232.0,226.499 C233.104,226.499 234.0,227.395 234.0,228.499 L234.0,234.500 C234.0,235.604 233.104,236.500 232.0,236.500 L225.999,236.500 C224.895,236.500 223.999,235.604 223.999,234.500 L223.999,228.499 C223.999,227.395 224.895,226.499 225.999,226.499 Z"/>
    <path fill-rule="evenodd"  fill="rgb(0, 155, 189)"
          d="M243.499,226.499 L249.500,226.499 C250.604,226.499 251.500,227.395 251.500,228.499 L251.500,234.500 C251.500,235.604 250.604,236.500 249.500,236.500 L243.499,236.500 C242.395,236.500 241.499,235.604 241.499,234.500 L241.499,228.499 C241.499,227.395 242.395,226.499 243.499,226.499 Z"/>
    <path fill-rule="evenodd"  fill="rgb(0, 155, 189)"
          d="M260.999,226.499 L267.0,226.499 C268.104,226.499 269.0,227.395 269.0,228.499 L269.0,234.500 C269.0,235.604 268.104,236.500 267.0,236.500 L260.999,236.500 C259.895,236.500 258.999,235.604 258.999,234.500 L258.999,228.499 C258.999,227.395 259.895,226.499 260.999,226.499 Z"/>
    <path fill-rule="evenodd"  fill="rgb(0, 155, 189)"
          d="M278.499,226.499 L284.500,226.499 C285.604,226.499 286.500,227.395 286.500,228.499 L286.500,234.500 C286.500,235.604 285.604,236.500 284.500,236.500 L278.499,236.500 C277.395,236.500 276.499,235.604 276.499,234.500 L276.499,228.499 C276.499,227.395 277.395,226.499 278.499,226.499 Z"/>
    <path fill-rule="evenodd"  fill="rgb(0, 155, 189)"
          d="M295.999,226.499 L302.0,226.499 C303.104,226.499 304.0,227.395 304.0,228.499 L304.0,234.500 C304.0,235.604 303.104,236.500 302.0,236.500 L295.999,236.500 C294.895,236.500 293.999,235.604 293.999,234.500 L293.999,228.499 C293.999,227.395 294.895,226.499 295.999,226.499 Z"/>
    <path fill-rule="evenodd"  fill="rgb(0, 155, 189)"
          d="M313.499,226.499 L319.500,226.499 C320.604,226.499 321.500,227.395 321.500,228.499 L321.500,234.500 C321.500,235.604 320.604,236.500 319.500,236.500 L313.499,236.500 C312.395,236.500 311.499,235.604 311.499,234.500 L311.499,228.499 C311.499,227.395 312.395,226.499 313.499,226.499 Z"/>
    <path fill-rule="evenodd"  fill="rgb(0, 155, 189)"
          d="M330.999,226.499 L337.0,226.499 C338.104,226.499 339.0,227.395 339.0,228.499 L339.0,234.500 C339.0,235.604 338.104,236.500 337.0,236.500 L330.999,236.500 C329.895,236.500 328.999,235.604 328.999,234.500 L328.999,228.499 C328.999,227.395 329.895,226.499 330.999,226.499 Z"/>
    <path fill-rule="evenodd"  fill="rgb(0, 155, 189)"
          d="M348.499,226.499 L354.500,226.499 C355.604,226.499 356.500,227.395 356.500,228.499 L356.500,234.500 C356.500,235.604 355.604,236.500 354.500,236.500 L348.499,236.500 C347.395,236.500 346.499,235.604 346.499,234.500 L346.499,228.499 C346.499,227.395 347.395,226.499 348.499,226.499 Z"/>
    <path fill-rule="evenodd"  fill="rgb(0, 155, 189)"
          d="M365.999,226.499 L372.0,226.499 C373.104,226.499 374.0,227.395 374.0,228.499 L374.0,234.500 C374.0,235.604 373.104,236.500 372.0,236.500 L365.999,236.500 C364.895,236.500 363.999,235.604 363.999,234.500 L363.999,228.499 C363.999,227.395 364.895,226.499 365.999,226.499 Z"/>
    <path fill-rule="evenodd"  fill="rgb(0, 155, 189)"
          d="M383.499,226.499 L389.500,226.499 C390.604,226.499 391.500,227.395 391.500,228.499 L391.500,234.500 C391.500,235.604 390.604,236.500 389.500,236.500 L383.499,236.500 C382.395,236.500 381.499,235.604 381.499,234.500 L381.499,228.499 C381.499,227.395 382.395,226.499 383.499,226.499 Z"/>
    <text kerning="auto" font-family="Myriad Pro" fill="rgb(0, 0, 0)" transform="matrix( 0.5, 0, 0, 0.5,1.20325000000003, 235.76175)" font-size="24px"><tspan font-size="24px" font-family="TT Norms" fill="#000000">&#49;&#50;</tspan></text>
    <text kerning="auto" font-family="Myriad Pro" fill="rgb(0, 0, 0)" transform="matrix( 0.5, 0, 0, 0.5,466.20325, 235.76175)" font-size="24px"><tspan font-size="24px" font-family="TT Norms" fill="#000000">&#49;&#50;</tspan></text>
    <path fill-rule="evenodd"  fill="rgb(0, 124, 147)"
          d="M44.999,226.499 L51.0,226.499 C52.104,226.499 53.0,227.395 53.0,228.499 L53.0,234.500 C53.0,235.604 52.104,236.500 51.0,236.500 L44.999,236.500 C43.895,236.500 42.999,235.604 42.999,234.500 L42.999,228.499 C42.999,227.395 43.895,226.499 44.999,226.499 Z"/>
    <path fill-rule="evenodd"  fill="rgb(0, 124, 147)"
          d="M29.999,226.499 L36.0,226.499 C37.104,226.499 38.0,227.395 38.0,228.499 L38.0,234.500 C38.0,235.604 37.104,236.500 36.0,236.500 L29.999,236.500 C28.895,236.500 27.999,235.604 27.999,234.500 L27.999,228.499 C27.999,227.395 28.895,226.499 29.999,226.499 Z"/>
    <text kerning="auto" font-family="Myriad Pro" fill="rgb(0, 0, 0)" transform="matrix( 0.5, 0, 0, 0.5,1.14449999999999, 254.70325)" font-size="24px"><tspan font-size="24px" font-family="TT Norms" fill="#000000">&#49;&#51;</tspan></text>
    <text kerning="auto" font-family="Myriad Pro" fill="rgb(0, 0, 0)" transform="matrix( 0.5, 0, 0, 0.5,466.1445, 254.70325)" font-size="24px"><tspan font-size="24px" font-family="TT Norms" fill="#000000">&#49;&#51;</tspan></text>
    <path fill-rule="evenodd"  fill="rgb(0, 124, 147)"
          d="M44.999,245.999 L51.0,245.999 C52.104,245.999 53.0,246.895 53.0,247.999 L53.0,254.0 C53.0,255.104 52.104,256.0 51.0,256.0 L44.999,256.0 C43.895,256.0 42.999,255.104 42.999,254.0 L42.999,247.999 C42.999,246.895 43.895,245.999 44.999,245.999 Z"/>
    <path fill-rule="evenodd"  fill="rgb(0, 124, 147)"
          d="M29.999,245.999 L36.0,245.999 C37.104,245.999 38.0,246.895 38.0,247.999 L38.0,254.0 C38.0,255.104 37.104,256.0 36.0,256.0 L29.999,256.0 C28.895,256.0 27.999,255.104 27.999,254.0 L27.999,247.999 C27.999,246.895 28.895,245.999 29.999,245.999 Z"/>
    <path fill-rule="evenodd"  fill="rgb(0, 124, 147)"
          d="M111.999,245.999 L118.0,245.999 C119.104,245.999 120.0,246.895 120.0,247.999 L120.0,254.0 C120.0,255.104 119.104,256.0 118.0,256.0 L111.999,256.0 C110.895,256.0 109.999,255.104 109.999,254.0 L109.999,247.999 C109.999,246.895 110.895,245.999 111.999,245.999 Z"/>
    <path fill-rule="evenodd"  fill="rgb(0, 124, 147)"
          d="M96.999,245.999 L103.0,245.999 C104.104,245.999 105.0,246.895 105.0,247.999 L105.0,254.0 C105.0,255.104 104.104,256.0 103.0,256.0 L96.999,256.0 C95.895,256.0 94.999,255.104 94.999,254.0 L94.999,247.999 C94.999,246.895 95.895,245.999 96.999,245.999 Z"/>
    <path fill-rule="evenodd"  fill="rgb(0, 124, 147)"
          d="M147.499,245.999 L153.500,245.999 C154.604,245.999 155.500,246.895 155.500,247.999 L155.500,254.0 C155.500,255.104 154.604,256.0 153.500,256.0 L147.499,256.0 C146.395,256.0 145.499,255.104 145.499,254.0 L145.499,247.999 C145.499,246.895 146.395,245.999 147.499,245.999 Z"/>
    <path fill-rule="evenodd"  fill="rgb(0, 124, 147)"
          d="M132.499,245.999 L138.500,245.999 C139.604,245.999 140.500,246.895 140.500,247.999 L140.500,254.0 C140.500,255.104 139.604,256.0 138.500,256.0 L132.499,256.0 C131.395,256.0 130.499,255.104 130.499,254.0 L130.499,247.999 C130.499,246.895 131.395,245.999 132.499,245.999 Z"/>
    <path fill-rule="evenodd"  fill="rgb(0, 124, 147)"
          d="M182.499,245.999 L188.500,245.999 C189.604,245.999 190.500,246.895 190.500,247.999 L190.500,254.0 C190.500,255.104 189.604,256.0 188.500,256.0 L182.499,256.0 C181.395,256.0 180.499,255.104 180.499,254.0 L180.499,247.999 C180.499,246.895 181.395,245.999 182.499,245.999 Z"/>
    <path fill-rule="evenodd"  fill="rgb(0, 124, 147)"
          d="M167.499,245.999 L173.500,245.999 C174.604,245.999 175.500,246.895 175.500,247.999 L175.500,254.0 C175.500,255.104 174.604,256.0 173.500,256.0 L167.499,256.0 C166.395,256.0 165.499,255.104 165.499,254.0 L165.499,247.999 C165.499,246.895 166.395,245.999 167.499,245.999 Z"/>
    <path fill-rule="evenodd"  fill="rgb(0, 124, 147)"
          d="M217.999,245.999 L224.0,245.999 C225.104,245.999 226.0,246.895 226.0,247.999 L226.0,254.0 C226.0,255.104 225.104,256.0 224.0,256.0 L217.999,256.0 C216.895,256.0 215.999,255.104 215.999,254.0 L215.999,247.999 C215.999,246.895 216.895,245.999 217.999,245.999 Z"/>
    <path fill-rule="evenodd"  fill="rgb(0, 124, 147)"
          d="M202.999,245.999 L209.0,245.999 C210.104,245.999 211.0,246.895 211.0,247.999 L211.0,254.0 C211.0,255.104 210.104,256.0 209.0,256.0 L202.999,256.0 C201.895,256.0 200.999,255.104 200.999,254.0 L200.999,247.999 C200.999,246.895 201.895,245.999 202.999,245.999 Z"/>
    <path fill-rule="evenodd"  fill="rgb(0, 124, 147)"
          d="M253.499,245.999 L259.500,245.999 C260.604,245.999 261.500,246.895 261.500,247.999 L261.500,254.0 C261.500,255.104 260.604,256.0 259.500,256.0 L253.499,256.0 C252.395,256.0 251.499,255.104 251.499,254.0 L251.499,247.999 C251.499,246.895 252.395,245.999 253.499,245.999 Z"/>
    <path fill-rule="evenodd"  fill="rgb(0, 124, 147)"
          d="M238.499,245.999 L244.500,245.999 C245.604,245.999 246.500,246.895 246.500,247.999 L246.500,254.0 C246.500,255.104 245.604,256.0 244.500,256.0 L238.499,256.0 C237.395,256.0 236.499,255.104 236.499,254.0 L236.499,247.999 C236.499,246.895 237.395,245.999 238.499,245.999 Z"/>
    <path fill-rule="evenodd"  fill="rgb(0, 124, 147)"
          d="M288.499,245.999 L294.500,245.999 C295.604,245.999 296.500,246.895 296.500,247.999 L296.500,254.0 C296.500,255.104 295.604,256.0 294.500,256.0 L288.499,256.0 C287.395,256.0 286.499,255.104 286.499,254.0 L286.499,247.999 C286.499,246.895 287.395,245.999 288.499,245.999 Z"/>
    <path fill-rule="evenodd"  fill="rgb(0, 124, 147)"
          d="M273.499,245.999 L279.500,245.999 C280.604,245.999 281.500,246.895 281.500,247.999 L281.500,254.0 C281.500,255.104 280.604,256.0 279.500,256.0 L273.499,256.0 C272.395,256.0 271.499,255.104 271.499,254.0 L271.499,247.999 C271.499,246.895 272.395,245.999 273.499,245.999 Z"/>
    <path fill-rule="evenodd"  fill="rgb(0, 124, 147)"
          d="M323.499,245.999 L329.500,245.999 C330.604,245.999 331.500,246.895 331.500,247.999 L331.500,254.0 C331.500,255.104 330.604,256.0 329.500,256.0 L323.499,256.0 C322.395,256.0 321.499,255.104 321.499,254.0 L321.499,247.999 C321.499,246.895 322.395,245.999 323.499,245.999 Z"/>
    <path fill-rule="evenodd"  fill="rgb(0, 124, 147)"
          d="M308.499,245.999 L314.500,245.999 C315.604,245.999 316.500,246.895 316.500,247.999 L316.500,254.0 C316.500,255.104 315.604,256.0 314.500,256.0 L308.499,256.0 C307.395,256.0 306.499,255.104 306.499,254.0 L306.499,247.999 C306.499,246.895 307.395,245.999 308.499,245.999 Z"/>
    <path fill-rule="evenodd"  fill="rgb(0, 124, 147)"
          d="M358.499,245.999 L364.500,245.999 C365.604,245.999 366.500,246.895 366.500,247.999 L366.500,254.0 C366.500,255.104 365.604,256.0 364.500,256.0 L358.499,256.0 C357.395,256.0 356.499,255.104 356.499,254.0 L356.499,247.999 C356.499,246.895 357.395,245.999 358.499,245.999 Z"/>
    <path fill-rule="evenodd"  fill="rgb(0, 124, 147)"
          d="M343.499,245.999 L349.500,245.999 C350.604,245.999 351.500,246.895 351.500,247.999 L351.500,254.0 C351.500,255.104 350.604,256.0 349.500,256.0 L343.499,256.0 C342.395,256.0 341.499,255.104 341.499,254.0 L341.499,247.999 C341.499,246.895 342.395,245.999 343.499,245.999 Z"/>
    <path fill-rule="evenodd"  fill="rgb(0, 124, 147)"
          d="M393.499,245.999 L399.500,245.999 C400.604,245.999 401.500,246.895 401.500,247.999 L401.500,254.0 C401.500,255.104 400.604,256.0 399.500,256.0 L393.499,256.0 C392.395,256.0 391.499,255.104 391.499,254.0 L391.499,247.999 C391.499,246.895 392.395,245.999 393.499,245.999 Z"/>
    <path fill-rule="evenodd"  fill="rgb(0, 124, 147)"
          d="M378.499,245.999 L384.500,245.999 C385.604,245.999 386.500,246.895 386.500,247.999 L386.500,254.0 C386.500,255.104 385.604,256.0 384.500,256.0 L378.499,256.0 C377.395,256.0 376.499,255.104 376.499,254.0 L376.499,247.999 C376.499,246.895 377.395,245.999 378.499,245.999 Z"/>
    <text kerning="auto" font-family="Myriad Pro" fill="rgb(0, 0, 0)" transform="matrix( 0.5, 0, 0, 0.5,1.34375, 272.703)" font-size="24px"><tspan font-size="24px" font-family="TT Norms" fill="#000000">&#49;&#52;</tspan></text>
    <text kerning="auto" font-family="Myriad Pro" fill="rgb(0, 0, 0)" transform="matrix( 0.5, 0, 0, 0.5,466.34375, 272.703)" font-size="24px"><tspan font-size="24px" font-family="TT Norms" fill="#000000">&#49;&#52;</tspan></text>
    <path fill-rule="evenodd"  fill="rgb(0, 124, 147)"
          d="M44.999,263.999 L51.0,263.999 C52.104,263.999 53.0,264.895 53.0,265.999 L53.0,272.0 C53.0,273.104 52.104,274.0 51.0,274.0 L44.999,274.0 C43.895,274.0 42.999,273.104 42.999,272.0 L42.999,265.999 C42.999,264.895 43.895,263.999 44.999,263.999 Z"/>
    <path fill-rule="evenodd"  fill="rgb(0, 124, 147)"
          d="M29.999,263.999 L36.0,263.999 C37.104,263.999 38.0,264.895 38.0,265.999 L38.0,272.0 C38.0,273.104 37.104,274.0 36.0,274.0 L29.999,274.0 C28.895,274.0 27.999,273.104 27.999,272.0 L27.999,265.999 C27.999,264.895 28.895,263.999 29.999,263.999 Z"/>
    <path fill-rule="evenodd"  fill="rgb(0, 124, 147)"
          d="M437.999,263.999 L444.0,263.999 C445.104,263.999 446.0,264.895 446.0,265.999 L446.0,272.0 C446.0,273.104 445.104,274.0 444.0,274.0 L437.999,274.0 C436.895,274.0 435.999,273.104 435.999,272.0 L435.999,265.999 C435.999,264.895 436.895,263.999 437.999,263.999 Z"/>
    <path fill-rule="evenodd"  fill="rgb(0, 124, 147)"
          d="M422.999,263.999 L429.0,263.999 C430.104,263.999 431.0,264.895 431.0,265.999 L431.0,272.0 C431.0,273.104 430.104,274.0 429.0,274.0 L422.999,274.0 C421.895,274.0 420.999,273.104 420.999,272.0 L420.999,265.999 C420.999,264.895 421.895,263.999 422.999,263.999 Z"/>
    <path fill-rule="evenodd"  fill="rgb(0, 124, 147)"
          d="M401.499,263.999 L407.500,263.999 C408.604,263.999 409.500,264.895 409.500,265.999 L409.500,272.0 C409.500,273.104 408.604,274.0 407.500,274.0 L401.499,274.0 C400.395,274.0 399.499,273.104 399.499,272.0 L399.499,265.999 C399.499,264.895 400.395,263.999 401.499,263.999 Z"/>
    <path fill-rule="evenodd"  fill="rgb(0, 124, 147)"
          d="M387.499,263.999 L393.500,263.999 C394.604,263.999 395.500,264.895 395.500,265.999 L395.500,272.0 C395.500,273.104 394.604,274.0 393.500,274.0 L387.499,274.0 C386.395,274.0 385.499,273.104 385.499,272.0 L385.499,265.999 C385.499,264.895 386.395,263.999 387.499,263.999 Z"/>
    <path fill-rule="evenodd"  fill="rgb(0, 124, 147)"
          d="M373.499,263.999 L379.500,263.999 C380.604,263.999 381.500,264.895 381.500,265.999 L381.500,272.0 C381.500,273.104 380.604,274.0 379.500,274.0 L373.499,274.0 C372.395,274.0 371.499,273.104 371.499,272.0 L371.499,265.999 C371.499,264.895 372.395,263.999 373.499,263.999 Z"/>
    <path fill-rule="evenodd"  fill="rgb(0, 124, 147)"
          d="M358.499,263.999 L364.500,263.999 C365.604,263.999 366.500,264.895 366.500,265.999 L366.500,272.0 C366.500,273.104 365.604,274.0 364.500,274.0 L358.499,274.0 C357.395,274.0 356.499,273.104 356.499,272.0 L356.499,265.999 C356.499,264.895 357.395,263.999 358.499,263.999 Z"/>
    <path fill-rule="evenodd"  fill="rgb(0, 124, 147)"
          d="M343.499,263.999 L349.500,263.999 C350.604,263.999 351.500,264.895 351.500,265.999 L351.500,272.0 C351.500,273.104 350.604,274.0 349.500,274.0 L343.499,274.0 C342.395,274.0 341.499,273.104 341.499,272.0 L341.499,265.999 C341.499,264.895 342.395,263.999 343.499,263.999 Z"/>
    <path fill-rule="evenodd"  fill="rgb(0, 124, 147)"
          d="M328.499,263.999 L334.500,263.999 C335.604,263.999 336.500,264.895 336.500,265.999 L336.500,272.0 C336.500,273.104 335.604,274.0 334.500,274.0 L328.499,274.0 C327.395,274.0 326.499,273.104 326.499,272.0 L326.499,265.999 C326.499,264.895 327.395,263.999 328.499,263.999 Z"/>
    <path fill-rule="evenodd"  fill="rgb(0, 124, 147)"
          d="M314.499,263.999 L320.500,263.999 C321.604,263.999 322.500,264.895 322.500,265.999 L322.500,272.0 C322.500,273.104 321.604,274.0 320.500,274.0 L314.499,274.0 C313.395,274.0 312.499,273.104 312.499,272.0 L312.499,265.999 C312.499,264.895 313.395,263.999 314.499,263.999 Z"/>
    <path fill-rule="evenodd"  fill="rgb(0, 124, 147)"
          d="M299.499,263.999 L305.500,263.999 C306.604,263.999 307.500,264.895 307.500,265.999 L307.500,272.0 C307.500,273.104 306.604,274.0 305.500,274.0 L299.499,274.0 C298.395,274.0 297.499,273.104 297.499,272.0 L297.499,265.999 C297.499,264.895 298.395,263.999 299.499,263.999 Z"/>
    <path fill-rule="evenodd"  fill="rgb(0, 124, 147)"
          d="M284.999,263.999 L291.0,263.999 C292.104,263.999 293.0,264.895 293.0,265.999 L293.0,272.0 C293.0,273.104 292.104,274.0 291.0,274.0 L284.999,274.0 C283.895,274.0 282.999,273.104 282.999,272.0 L282.999,265.999 C282.999,264.895 283.895,263.999 284.999,263.999 Z"/>
    <path fill-rule="evenodd"  fill="rgb(0, 124, 147)"
          d="M269.999,263.999 L276.0,263.999 C277.104,263.999 278.0,264.895 278.0,265.999 L278.0,272.0 C278.0,273.104 277.104,274.0 276.0,274.0 L269.999,274.0 C268.895,274.0 267.999,273.104 267.999,272.0 L267.999,265.999 C267.999,264.895 268.895,263.999 269.999,263.999 Z"/>
    <path fill-rule="evenodd"  fill="rgb(0, 124, 147)"
          d="M255.499,263.999 L261.500,263.999 C262.604,263.999 263.500,264.895 263.500,265.999 L263.500,272.0 C263.500,273.104 262.604,274.0 261.500,274.0 L255.499,274.0 C254.395,274.0 253.499,273.104 253.499,272.0 L253.499,265.999 C253.499,264.895 254.395,263.999 255.499,263.999 Z"/>
    <path fill-rule="evenodd"  fill="rgb(0, 124, 147)"
          d="M240.499,263.999 L246.500,263.999 C247.604,263.999 248.500,264.895 248.500,265.999 L248.500,272.0 C248.500,273.104 247.604,274.0 246.500,274.0 L240.499,274.0 C239.395,274.0 238.499,273.104 238.499,272.0 L238.499,265.999 C238.499,264.895 239.395,263.999 240.499,263.999 Z"/>
    <path fill-rule="evenodd"  fill="rgb(0, 124, 147)"
          d="M226.999,263.999 L233.0,263.999 C234.104,263.999 235.0,264.895 235.0,265.999 L235.0,272.0 C235.0,273.104 234.104,274.0 233.0,274.0 L226.999,274.0 C225.895,274.0 224.999,273.104 224.999,272.0 L224.999,265.999 C224.999,264.895 225.895,263.999 226.999,263.999 Z"/>
    <path fill-rule="evenodd"  fill="rgb(0, 124, 147)"
          d="M211.999,263.999 L218.0,263.999 C219.104,263.999 220.0,264.895 220.0,265.999 L220.0,272.0 C220.0,273.104 219.104,274.0 218.0,274.0 L211.999,274.0 C210.895,274.0 209.999,273.104 209.999,272.0 L209.999,265.999 C209.999,264.895 210.895,263.999 211.999,263.999 Z"/>
    <path fill-rule="evenodd"  fill="rgb(0, 124, 147)"
          d="M197.499,263.999 L203.500,263.999 C204.604,263.999 205.500,264.895 205.500,265.999 L205.500,272.0 C205.500,273.104 204.604,274.0 203.500,274.0 L197.499,274.0 C196.395,274.0 195.499,273.104 195.499,272.0 L195.499,265.999 C195.499,264.895 196.395,263.999 197.499,263.999 Z"/>
    <path fill-rule="evenodd"  fill="rgb(0, 124, 147)"
          d="M182.499,263.999 L188.500,263.999 C189.604,263.999 190.500,264.895 190.500,265.999 L190.500,272.0 C190.500,273.104 189.604,274.0 188.500,274.0 L182.499,274.0 C181.395,274.0 180.499,273.104 180.499,272.0 L180.499,265.999 C180.499,264.895 181.395,263.999 182.499,263.999 Z"/>
    <path fill-rule="evenodd"  fill="rgb(0, 124, 147)"
          d="M167.999,263.999 L174.0,263.999 C175.104,263.999 176.0,264.895 176.0,265.999 L176.0,272.0 C176.0,273.104 175.104,274.0 174.0,274.0 L167.999,274.0 C166.895,274.0 165.999,273.104 165.999,272.0 L165.999,265.999 C165.999,264.895 166.895,263.999 167.999,263.999 Z"/>
    <path fill-rule="evenodd"  fill="rgb(0, 124, 147)"
          d="M152.999,263.999 L159.0,263.999 C160.104,263.999 161.0,264.895 161.0,265.999 L161.0,272.0 C161.0,273.104 160.104,274.0 159.0,274.0 L152.999,274.0 C151.895,274.0 150.999,273.104 150.999,272.0 L150.999,265.999 C150.999,264.895 151.895,263.999 152.999,263.999 Z"/>
    <path fill-rule="evenodd"  fill="rgb(0, 124, 147)"
          d="M137.999,263.999 L144.0,263.999 C145.104,263.999 146.0,264.895 146.0,265.999 L146.0,272.0 C146.0,273.104 145.104,274.0 144.0,274.0 L137.999,274.0 C136.895,274.0 135.999,273.104 135.999,272.0 L135.999,265.999 C135.999,264.895 136.895,263.999 137.999,263.999 Z"/>
    <path fill-rule="evenodd"  fill="rgb(0, 124, 147)"
          d="M122.999,263.999 L129.0,263.999 C130.104,263.999 131.0,264.895 131.0,265.999 L131.0,272.0 C131.0,273.104 130.104,274.0 129.0,274.0 L122.999,274.0 C121.895,274.0 120.999,273.104 120.999,272.0 L120.999,265.999 C120.999,264.895 121.895,263.999 122.999,263.999 Z"/>
    <path fill-rule="evenodd"  fill="rgb(0, 124, 147)"
          d="M108.999,263.999 L115.0,263.999 C116.104,263.999 117.0,264.895 117.0,265.999 L117.0,272.0 C117.0,273.104 116.104,274.0 115.0,274.0 L108.999,274.0 C107.895,274.0 106.999,273.104 106.999,272.0 L106.999,265.999 C106.999,264.895 107.895,263.999 108.999,263.999 Z"/>
    <path fill-rule="evenodd"  fill="rgb(0, 124, 147)"
          d="M93.999,263.999 L100.0,263.999 C101.104,263.999 102.0,264.895 102.0,265.999 L102.0,272.0 C102.0,273.104 101.104,274.0 100.0,274.0 L93.999,274.0 C92.895,274.0 91.999,273.104 91.999,272.0 L91.999,265.999 C91.999,264.895 92.895,263.999 93.999,263.999 Z"/>
    <path fill-rule="evenodd"  fill="rgb(0, 124, 147)"
          d="M80.499,263.999 L86.500,263.999 C87.604,263.999 88.500,264.895 88.500,265.999 L88.500,272.0 C88.500,273.104 87.604,274.0 86.500,274.0 L80.499,274.0 C79.395,274.0 78.499,273.104 78.499,272.0 L78.499,265.999 C78.499,264.895 79.395,263.999 80.499,263.999 Z"/>
    <path fill-rule="evenodd"  fill="rgb(0, 124, 147)"
          d="M65.499,263.999 L71.500,263.999 C72.604,263.999 73.500,264.895 73.500,265.999 L73.500,272.0 C73.500,273.104 72.604,274.0 71.500,274.0 L65.499,274.0 C64.395,274.0 63.499,273.104 63.499,272.0 L63.499,265.999 C63.499,264.895 64.395,263.999 65.499,263.999 Z"/>
</svg>