<svg xmlns="http://www.w3.org/2000/svg" viewBox="0 0 511.08 340.11"><g id="Слой_2" data-name="Слой 2"><g id="Слой_1-2" data-name="Слой 1"><path d="M0,160.84q26-26.52,52-53Q100.68,58.4,149.44,9.08c11.79-11.94,25.23-12,37.12-.23,9.32,9.27,18.65,18.53,27.89,27.87,10.9,11,10.7,24.51,0,35.79-7.53,7.94-16,12.57-27.09,9.12a29.28,29.28,0,0,1-8.59-4.84c-5.89-4.47-9.45-4.44-14.76.83-8.15,8.08-16.24,16.23-24.37,24.33-2.93,2.91-6.27,3.81-9.9,1.45-3.2-2.08-4-5.24-2.85-8.75A10.22,10.22,0,0,1,129.39,91c8.55-8.62,17-17.32,25.79-25.73,9.23-8.87,22.15-9.08,32.14-.88,6.5,5.33,9.93,4.69,17.1-3.18,4.49-4.93,4.24-8.95-1-14.24-9.37-9.45-18.74-18.9-28.21-28.25-5-5-9.29-4.94-14.23.06Q94.49,86.05,28.08,153.36c-.54.55-1,1.19-2.23,2.68,10.16,0,19.4-.46,28.57.14,7.07.47,12-1.67,16.9-6.88,11-11.79,22.59-23,34.19-34.25,1.94-1.88,5.21-3.55,7.69-3.34,2.18.19,5.31,2.87,5.83,5a10,10,0,0,1-2.29,7.9c-8.64,9.21-17.74,18-26.67,27-1.14,1.15-2.21,2.36-3.85,4.1H424.49a35.79,35.79,0,0,0-2.35-3Q384.56,115.11,347,77.57c-5.3-5.29-8.95-5.41-14.7-.71-10.13,8.28-22.46,7.87-32.14-.9-8.2-7.43-14.24-15.81-10.62-27.49a30.2,30.2,0,0,1,6.82-11.32c9.48-10,19.38-19.66,29.2-29.36,10.4-10.28,24.34-10.47,34.61-.09Q434,82.36,507.65,157.28a12.4,12.4,0,0,1,3.21,7.88c.2,36.59.36,73.19.06,109.78-.28,33.86-27.4,62.48-61.19,64.68-11.6.75-23.27.4-34.91.42-28.95,0-57.89.1-86.83,0-22.11-.08-36.44-11.91-40.25-33-2.45-13.57-4.77-27.16-7.13-40.75-1.43-8.18-2.86-16.37-4.23-24.56-2.05-12.39-10.13-20-21.13-19.87-10.83.14-18.58,7.71-20.67,19.86-3.89,22.59-7.72,45.2-11.93,67.73-3.24,17.36-16.55,29.14-34.17,30.31-8.78.59-17.62.33-26.43.34-30.94,0-61.88.14-92.82,0-32.65-.18-58.18-18.82-66.66-48.37-1-3.32-1.72-6.69-2.57-10Zm15,10.39v5q0,47.65,0,95.31c.06,31,22,53.25,53,53.37,38.58.15,77.17.05,115.75,0,14.48,0,22.45-7.09,24.88-21.27,3.87-22.59,7.79-45.18,12-67.72a35.56,35.56,0,0,1,69.92,0q6.18,33.83,11.94,67.73c2.44,14.26,10.42,21.29,24.83,21.3q57.63,0,115.26,0C474,324.85,496,302.64,496,271s0-63.2,0-94.8c0-1.6-.16-3.21-.26-5ZM485.17,156c-1.52-1.71-2.31-2.68-3.19-3.57q-48.56-49.18-97.12-98.34c-11.57-11.72-23.1-23.47-34.72-35.15-4.62-4.65-9-5.23-13.1-1.27q-15.75,15.3-31.06,31c-3.55,3.64-3.42,7.8-.16,11.66a44.22,44.22,0,0,0,4.92,5c3.87,3.37,7.62,3.4,11.72.26C335.81,55.32,346.7,56,358.6,67.92q42.34,42.33,84.7,84.65c1.35,1.35,3.1,3.21,4.7,3.24C460.05,156.09,472.12,156,485.17,156Z"/></g></g></svg>